<?xml version="1.0" standalone="no"?>
<!DOCTYPE svg PUBLIC "-//W3C//DTD SVG 20010904//EN"
 "http://www.w3.org/TR/2001/REC-SVG-20010904/DTD/svg10.dtd">
<svg version="1.0" xmlns="http://www.w3.org/2000/svg"
 width="300.000000pt" height="300.000000pt" viewBox="0 0 300.000000 300.000000"
 preserveAspectRatio="xMidYMid meet">
<metadata>
Created by potrace 1.10, written by Peter Selinger 2001-2011
</metadata>
<g transform="translate(0.000000,300.000000) scale(0.100000,-0.100000)"
fill="#000000" stroke="none">
<path d="M1481 2983 c0 -11 59 -56 59 -46 0 9 -45 53 -54 53 -3 0 -6 -3 -5 -7z"/>
<path d="M1303 2947 c-28 -31 -36 -47 -23 -47 6 0 14 8 17 18 4 9 14 22 22 29
9 6 13 14 10 17 -3 3 -15 -4 -26 -17z"/>
<path d="M2024 2942 c-4 -18 -16 -34 -30 -41 -38 -17 -26 -38 18 -32 3 0 9
-13 13 -29 8 -37 22 -39 31 -5 4 16 18 31 38 39 l31 14 -37 16 c-25 11 -38 23
-38 36 0 32 -20 33 -26 2z"/>
<path d="M1036 2903 c-40 -21 -71 -51 -63 -60 4 -3 16 2 27 13 27 27 49 44 55
44 20 -1 25 1 25 10 0 14 -10 12 -44 -7z"/>
<path d="M1185 2900 c3 -5 11 -10 16 -10 5 0 21 -7 34 -16 20 -13 23 -20 15
-34 -6 -12 -6 -21 -1 -25 5 -3 11 5 13 17 4 22 5 21 24 -9 10 -18 22 -33 27
-33 14 0 7 17 -18 46 -14 16 -23 35 -20 43 3 8 0 11 -9 8 -7 -3 -26 1 -41 9
-32 16 -49 18 -40 4z"/>
<path d="M497 2863 c-15 -15 -22 -16 -49 -5 -40 15 -43 11 -29 -29 10 -29 9
-35 -11 -56 l-21 -23 35 0 c27 0 37 -5 46 -25 15 -34 31 -32 39 5 3 20 12 30
23 30 24 0 50 10 50 19 0 4 -12 13 -26 20 -23 10 -25 16 -20 46 8 40 -8 47
-37 18z m-41 -39 c-3 -9 4 -12 22 -11 21 2 27 -3 27 -18 0 -13 -8 -21 -22 -23
-17 -3 -26 5 -38 34 -19 45 -19 45 1 37 8 -3 13 -11 10 -19z"/>
<path d="M1795 2859 c-4 -11 -18 -24 -31 -29 -31 -12 -31 -28 1 -36 15 -4 25
-13 25 -24 0 -30 19 -33 31 -6 7 14 20 28 31 31 24 8 23 26 -1 32 -11 3 -22
16 -25 29 -8 29 -22 31 -31 3z m25 -69 c-16 -16 -20 -17 -20 -5 0 9 -6 18 -14
21 -12 5 -12 8 2 23 16 17 18 17 35 0 17 -18 17 -19 -3 -39z"/>
<path d="M1240 2791 c0 -5 8 -19 19 -32 16 -21 22 -22 45 -11 14 6 26 16 26
22 0 15 -17 12 -23 -4 -6 -14 -47 -11 -45 3 2 18 -3 31 -12 31 -5 0 -10 -4
-10 -9z"/>
<path d="M936 2782 c-3 -6 -15 -8 -26 -5 -33 9 -22 -6 17 -22 20 -8 37 -14 38
-13 1 2 -4 14 -11 26 -6 13 -14 19 -18 14z"/>
<path d="M731 2726 c-6 -7 -8 -16 -4 -19 3 -4 2 -7 -4 -7 -6 0 -16 -14 -22
-31 -14 -39 -14 -49 -1 -49 6 0 10 8 10 19 0 10 11 34 25 54 23 34 20 62 -4
33z"/>
<path d="M2310 2722 c-24 -2 -50 -8 -56 -13 -7 -5 -23 -5 -42 2 -37 13 -72 -2
-72 -31 0 -13 -7 -20 -20 -20 -11 0 -27 -11 -36 -25 -24 -37 -21 -76 7 -96 13
-10 36 -27 51 -39 28 -22 87 -27 118 -10 13 7 21 7 25 0 3 -5 20 -10 37 -10
23 0 41 10 69 40 21 22 44 40 52 40 31 0 116 -53 140 -88 40 -57 58 -112 37
-112 -5 0 -10 7 -10 15 0 25 -36 88 -67 117 -30 29 -72 48 -105 48 -30 0 -18
-8 22 -15 44 -8 96 -56 125 -117 25 -55 23 -90 -7 -103 -12 -6 -30 -22 -41
-37 -17 -23 -18 -31 -7 -57 7 -17 20 -33 30 -36 10 -3 30 -17 44 -30 29 -27
73 -33 108 -14 15 8 26 8 43 -1 18 -10 28 -9 53 4 37 19 72 62 72 88 0 28 -18
58 -35 58 -21 0 -43 56 -48 123 -12 140 -130 275 -272 312 -34 9 -147 12 -215
7z m205 -27 c106 -28 181 -89 230 -185 27 -54 44 -150 26 -150 -6 0 -11 15
-11 33 0 98 -77 205 -188 259 -55 28 -80 34 -149 37 -46 1 -80 7 -77 12 8 14
104 11 169 -6z m-299 -3 c6 -4 10 -20 10 -37 -1 -20 4 -31 17 -33 22 -4 34 25
19 48 -14 22 -6 30 29 30 20 0 34 -8 46 -26 17 -26 16 -27 -10 -46 -15 -11
-27 -26 -27 -35 0 -23 43 -12 55 15 12 28 21 28 40 -2 15 -22 15 -27 1 -54
-16 -31 -70 -64 -92 -55 -8 3 -11 16 -7 40 5 31 4 35 -13 31 -13 -2 -19 -12
-19 -32 -1 -20 -7 -32 -20 -37 -33 -13 -72 -10 -85 6 -10 12 -10 15 3 15 22 0
30 17 23 46 -9 34 -34 30 -50 -7 l-13 -32 -22 22 c-11 11 -21 29 -21 39 0 23
45 66 59 57 6 -3 11 2 11 12 0 35 38 55 66 35z m255 -22 c145 -28 261 -140
271 -264 2 -32 -1 -40 -18 -46 -19 -8 -22 -4 -28 36 -16 123 -142 234 -263
234 -41 0 -73 15 -73 35 0 18 35 19 111 5z m62 -82 c62 -27 123 -96 142 -161
20 -67 19 -76 -5 -70 -11 3 -24 20 -31 42 -28 87 -91 148 -175 170 -29 8 -43
18 -47 32 -5 19 -3 20 31 14 20 -4 59 -16 85 -27z m134 -244 c18 -5 21 -11 16
-40 -4 -26 -2 -35 12 -40 19 -8 37 13 31 36 -2 8 -5 22 -7 30 -3 11 4 15 25
15 32 0 83 -54 58 -62 -35 -13 -51 -52 -25 -60 12 -4 39 19 45 39 8 21 38 -11
38 -39 0 -33 -53 -85 -82 -81 -18 2 -22 10 -23 38 0 24 -5 35 -15 35 -10 0
-15 -10 -15 -30 0 -34 -14 -43 -67 -44 -43 -1 -57 13 -28 29 24 13 26 42 4 61
-14 11 -18 10 -30 -6 -8 -10 -14 -25 -14 -32 0 -7 -3 -13 -7 -13 -13 0 -43 34
-43 49 0 26 29 61 51 61 12 0 19 7 19 18 0 17 18 42 30 42 3 0 15 -3 27 -6z"/>
<path d="M930 2685 c0 -27 28 -48 55 -41 24 6 37 46 15 46 -5 0 -10 -7 -10
-15 0 -8 -9 -15 -20 -15 -11 0 -20 6 -20 14 0 8 -4 18 -10 21 -5 3 -10 -1 -10
-10z"/>
<path d="M1590 2662 c-86 -43 -259 -153 -260 -164 0 -5 11 -8 25 -8 50 0 586
-99 629 -116 13 -5 10 2 -10 22 -17 16 -43 47 -60 69 -90 122 -206 235 -241
235 -5 0 -42 -17 -83 -38z m185 -76 c40 -41 81 -89 91 -105 10 -17 22 -31 26
-31 4 0 8 -4 8 -10 0 -5 -9 -10 -19 -10 -28 0 -453 78 -459 84 -6 7 18 36 30
36 5 0 24 11 41 24 52 39 150 86 181 86 23 0 44 -16 101 -74z"/>
<path d="M345 2457 c-26 -20 -25 -81 2 -137 l21 -40 -29 -45 c-16 -25 -29 -48
-29 -52 0 -3 28 -3 63 1 61 6 62 5 79 -24 25 -44 41 -38 36 12 -4 39 -1 45 45
89 l49 47 35 -15 c27 -11 38 -12 47 -3 8 9 3 19 -22 39 l-32 28 15 37 c9 21
15 40 12 42 -2 2 -28 -4 -59 -12 l-56 -16 -36 27 c-44 33 -112 44 -141 22z
m91 -12 c20 -8 34 -19 32 -24 -6 -17 -107 -91 -112 -82 -3 4 -8 26 -12 48 -5
35 -3 43 17 57 29 20 31 20 75 1z m53 -62 l-24 -26 31 22 c43 31 98 26 102 -9
2 -14 15 -35 30 -48 l27 -24 -25 7 c-14 4 -30 12 -37 17 -8 6 -24 -4 -50 -30
-21 -21 -51 -48 -68 -59 -55 -37 -115 -40 -115 -5 0 13 3 12 20 -3 19 -18 22
-18 38 -2 21 22 5 53 -26 50 -48 -6 15 80 92 124 31 18 32 16 5 -14z m-15
-195 c3 -13 6 -27 6 -33 -1 -15 -30 27 -30 42 0 22 17 15 24 -9z"/>
<path d="M383 2443 c-24 -9 -13 -18 23 -19 33 -1 35 1 18 13 -19 14 -22 14
-41 6z"/>
<path d="M534 2375 c-8 -21 2 -45 19 -45 20 0 40 27 33 45 -7 19 -45 20 -52 0z"/>
<path d="M464 2305 c-4 -9 0 -23 9 -32 21 -21 49 -9 45 19 -4 28 -45 38 -54
13z"/>
<path d="M987 2235 c-15 -85 -30 -161 -33 -169 -3 -8 3 -15 18 -19 268 -59
996 -198 1192 -227 43 -6 82 -8 86 -3 13 15 49 327 38 334 -15 9 -375 78 -828
159 -217 39 -407 73 -421 76 l-25 5 -27 -156z m122 106 c11 -7 5 -14 -25 -27
-21 -10 -42 -20 -46 -22 -10 -5 -11 42 -1 51 9 10 56 8 72 -2z m145 -24 c18
-13 18 -14 1 -21 -12 -4 -26 0 -39 14 l-20 20 20 0 c11 0 28 -6 38 -13z m-50
-26 c3 -5 3 -23 0 -41 -6 -29 -9 -31 -37 -26 -40 8 -77 -16 -77 -49 0 -21 7
-27 45 -37 41 -11 46 -15 43 -38 -5 -43 -72 -40 -127 6 -24 20 -31 34 -31 61
0 47 27 101 59 118 29 16 117 20 125 6z m251 -7 c63 -14 112 -24 199 -38 50
-9 42 -16 -17 -16 -32 0 -57 5 -57 10 0 14 -43 13 -74 -2 -22 -9 -29 -8 -46 7
-12 11 -28 15 -42 12 -22 -6 -58 16 -58 35 0 11 15 10 95 -8z m-107 -29 c36
-30 44 -64 30 -127 -11 -56 -45 -88 -93 -88 -74 0 -112 73 -80 155 31 82 89
106 143 60z m125 -73 l32 -57 3 53 c3 57 4 57 50 41 35 -12 35 -16 11 -144
-16 -82 -23 -86 -69 -38 l-40 42 0 -31 c0 -30 -1 -30 -37 -23 -21 4 -40 8 -41
10 -5 4 28 197 35 208 8 13 23 -3 56 -61z m401 27 c54 -10 100 -19 102 -19 15
0 -1 -22 -25 -35 -16 -8 -36 -22 -45 -30 -14 -14 -17 -12 -36 26 -20 38 -24
41 -55 36 -26 -4 -38 0 -54 17 -19 20 -20 23 -4 23 10 1 62 -7 117 -18z m-156
-16 c34 -5 42 -10 42 -27 0 -28 -11 -41 -35 -41 -17 0 -21 -9 -28 -72 l-9 -73
-35 0 -36 0 6 43 c3 23 9 61 13 85 6 38 5 42 -15 42 -15 0 -21 6 -21 23 0 33
10 40 45 32 16 -3 49 -8 73 -12z m132 -50 c6 -21 13 -73 17 -115 6 -83 5 -85
-44 -72 -18 5 -22 11 -17 29 3 13 1 26 -5 29 -6 4 -13 -4 -17 -19 -5 -21 -12
-25 -40 -25 -19 0 -34 2 -34 5 0 12 83 171 98 188 22 25 30 21 42 -20z m228
-8 c2 -2 0 -19 -3 -38 -7 -34 -8 -35 -43 -30 -29 4 -41 0 -55 -15 -29 -32 -18
-55 33 -68 36 -9 44 -15 42 -30 -7 -43 -11 -46 -50 -39 -52 10 -89 34 -103 67
-23 56 26 150 84 161 20 4 88 -2 95 -8z m130 -33 c24 -4 43 -10 43 -14 -1 -5
-1 -17 -1 -28 0 -14 -7 -20 -24 -20 -23 0 -25 -5 -31 -67 -9 -99 -7 -97 -71
-78 -8 2 -7 25 1 79 7 42 10 78 7 81 -3 3 -14 5 -24 5 -20 0 -21 4 -12 38 6
19 11 22 38 17 17 -3 51 -9 74 -13z m-1183 -12 c18 -19 17 -20 -3 -20 -12 0
-22 2 -22 4 0 2 -3 11 -6 20 -9 22 9 20 31 -4z m1070 -129 c1 -57 5 -76 18
-86 28 -20 20 -22 -40 -13 -68 11 -74 14 -40 27 56 21 57 90 2 111 -14 5 -25
17 -25 25 0 13 9 15 43 13 l42 -3 0 -74z m-722 55 c22 -17 22 -26 -2 -26 -36
0 -53 11 -40 26 14 17 19 17 42 0z m132 -16 c9 -14 48 -13 63 2 10 10 18 7 38
-15 14 -15 22 -32 19 -37 -6 -10 -63 -2 -81 11 -6 5 -13 6 -16 3 -3 -3 -25 0
-48 6 -34 9 -39 14 -30 26 14 16 46 19 55 4z m741 -42 c-12 -110 -20 -124 -60
-114 l-25 6 23 23 c13 14 27 43 31 67 6 37 21 68 34 70 2 0 1 -24 -3 -52z
m-466 -15 c14 -3 45 -6 70 -7 49 -3 136 -46 92 -46 -31 0 -209 29 -257 42 -34
9 -37 12 -20 19 18 7 39 6 115 -8z"/>
<path d="M1264 2185 c-22 -34 -12 -75 19 -75 30 0 47 18 47 50 0 51 -39 66
-66 25z"/>
<path d="M820 2118 c-14 -11 -36 -29 -50 -41 -14 -12 -43 -35 -65 -52 -59 -43
-86 -70 -88 -86 -2 -8 -5 -18 -8 -24 -6 -10 -16 -48 -33 -125 -3 -11 -7 -24
-10 -28 -3 -5 -7 -19 -10 -33 -9 -44 -14 -64 -26 -109 -7 -25 -14 -52 -16 -60
-2 -8 -11 -44 -19 -80 -9 -36 -18 -72 -20 -80 -2 -8 -8 -35 -14 -60 -13 -49
-19 -75 -25 -105 -2 -11 -10 -42 -16 -70 -6 -27 -13 -57 -15 -65 -2 -8 -9 -37
-15 -65 -40 -170 -48 -228 -31 -210 15 17 38 102 86 315 25 113 50 223 56 245
5 22 18 74 28 115 10 41 35 136 55 210 20 74 39 146 42 160 13 54 15 56 30 28
8 -16 17 -28 20 -28 2 0 0 9 -6 19 -20 39 -13 51 33 52 23 1 33 3 22 6 -73 15
-71 11 -24 43 24 16 59 42 78 57 27 22 33 24 28 10 -4 -10 -7 -41 -7 -68 0
-44 -2 -49 -22 -50 -13 0 -17 -3 -10 -6 15 -6 15 -46 1 -113 -10 -45 -13 -49
-27 -38 -11 9 -10 3 4 -17 12 -16 24 -41 27 -55 4 -14 62 -82 131 -153 l124
-127 -206 -193 c-114 -107 -268 -249 -342 -317 -74 -69 -136 -127 -138 -131
-4 -8 100 -42 183 -60 33 -7 65 -14 70 -16 6 -1 30 -7 55 -12 25 -6 56 -13 70
-16 14 -3 37 -7 52 -10 15 -2 35 -6 45 -9 19 -6 75 -16 110 -21 11 -2 29 -6
40 -9 17 -5 58 -13 113 -21 14 -2 52 -9 85 -15 33 -6 69 -12 80 -14 11 -2 49
-9 85 -16 36 -6 77 -14 93 -16 31 -5 58 -9 142 -23 33 -6 78 -13 100 -16 22
-3 56 -8 75 -11 19 -2 42 -6 50 -9 13 -4 57 -10 140 -20 14 -2 59 -8 100 -15
112 -17 276 -24 283 -13 6 9 29 89 42 143 12 52 25 109 29 135 3 17 11 55 17
85 6 30 12 64 14 75 9 61 16 102 20 115 4 17 12 70 20 133 3 23 8 58 10 77 21
139 23 161 31 300 l6 115 -72 109 c-39 59 -74 114 -77 122 -11 29 -19 12 -33
-63 -7 -43 -15 -85 -17 -93 -2 -8 -13 -58 -26 -110 l-22 -95 -90 -45 c-216
-109 -731 -374 -741 -381 -7 -6 -41 21 -96 78 -46 49 -188 196 -315 328 l-230
240 12 86 c7 48 16 108 20 135 3 26 13 82 20 123 8 41 14 76 12 77 -1 1 -13
-7 -27 -18z m1578 -388 c39 -57 40 -60 19 -61 -20 0 -19 -2 6 -11 34 -12 34
-21 1 -47 -30 -24 -20 -29 10 -6 11 8 24 15 29 15 17 0 -5 -273 -38 -485 -3
-16 -14 -93 -25 -169 -12 -77 -23 -143 -25 -147 -3 -4 -14 -51 -25 -105 -11
-55 -29 -135 -38 -178 l-18 -80 -181 410 c-214 481 -198 444 -183 444 7 0 43
14 79 31 38 18 67 27 69 21 2 -8 12 -7 29 1 21 9 27 9 31 -1 5 -16 22 -15 22
2 0 17 24 28 45 20 22 -9 18 -22 -7 -26 -12 -2 -23 -9 -26 -15 -5 -16 34 -17
44 -2 4 7 21 9 46 5 30 -5 39 -3 36 6 -3 7 -13 14 -24 14 -37 3 -39 5 -20 19
11 8 29 12 42 9 12 -3 25 -1 28 5 7 11 -5 15 -36 12 -27 -3 -21 17 10 33 25
14 26 15 5 16 -13 0 -23 -4 -23 -10 0 -5 -9 -10 -20 -10 -24 0 -26 13 -5 30 8
7 15 19 15 26 0 8 3 14 8 14 4 0 18 10 32 21 16 14 19 19 8 15 -21 -6 -22 1
-7 77 10 47 16 57 33 58 19 2 19 2 -2 6 -17 3 -22 9 -17 21 4 9 11 32 17 50 5
17 10 32 12 32 2 0 22 -27 44 -60z m-150 -313 c3 -13 -4 -17 -27 -17 -35 0
-39 7 -13 26 21 16 36 13 40 -9z m-1131 -83 c21 -21 84 -87 139 -144 56 -58
113 -116 127 -129 l26 -23 226 113 c124 62 235 122 245 131 19 18 20 17 39
-19 32 -65 351 -792 351 -802 0 -5 -22 -3 -52 5 -29 7 -75 14 -102 14 -27 0
-77 4 -110 10 -34 5 -124 19 -201 30 -242 37 -508 79 -565 91 -30 6 -75 15
-100 20 -120 25 -364 73 -435 85 -44 8 -114 24 -155 35 -110 29 -113 30 -144
34 -16 2 -30 6 -32 8 -2 2 147 144 332 315 l337 311 17 -22 c10 -13 35 -41 57
-63z m1047 67 c3 -5 -9 -11 -27 -14 -37 -5 -48 0 -27 13 19 12 47 13 54 1z"/>
<path d="M526 791 c9 -9 619 -132 969 -195 382 -69 635 -99 649 -77 5 8 -13
11 -62 11 -139 0 -699 95 -1330 226 -228 47 -241 49 -226 35z"/>
<path d="M240 1949 c0 -11 5 -30 11 -41 9 -17 6 -25 -22 -54 -18 -19 -28 -35
-21 -35 7 -1 17 -3 22 -4 6 -1 20 -3 33 -4 17 -1 25 -10 32 -33 15 -48 33 -46
46 6 11 43 12 45 53 48 49 4 53 18 9 38 -30 14 -31 17 -26 58 6 46 0 51 -36
23 -24 -18 -25 -18 -55 0 -39 24 -46 24 -46 -2z m116 -63 c10 -21 8 -28 -10
-45 -26 -25 -42 -26 -62 -6 -12 11 -12 19 -4 35 6 11 8 20 5 20 -4 0 -3 5 0
10 13 20 60 11 71 -14z"/>
<path d="M2626 1934 c-29 -29 -12 -64 31 -64 19 0 43 25 43 44 0 10 -32 36
-45 36 -7 0 -21 -7 -29 -16z m52 -27 c4 -20 -25 -34 -40 -19 -15 15 -1 44 19
40 10 -2 19 -11 21 -21z"/>
<path d="M1135 1917 c-9 -26 -65 -328 -65 -350 0 -20 8 -25 53 -36 209 -49
703 -161 712 -161 8 0 24 74 44 198 18 108 34 204 37 213 7 26 -121 53 -511
109 -115 16 -223 32 -238 35 -17 3 -29 0 -32 -8z m78 -26 l25 -10 -20 -40
c-30 -61 -35 -172 -10 -244 l20 -59 -47 7 c-94 14 -94 15 -55 212 20 98 31
133 43 136 9 3 17 5 18 6 1 0 13 -3 26 -8z m200 -27 c3 -4 -1 -16 -9 -29 -8
-12 -17 -33 -19 -45 -2 -13 -7 -25 -11 -29 -4 -3 -4 7 -1 24 3 17 -1 42 -9 57
-14 27 -14 28 14 28 16 0 31 -3 35 -6z m-108 -14 c45 -1 48 -11 35 -103 -14
-91 -9 -137 16 -137 21 0 40 52 53 144 6 44 13 81 15 83 2 2 27 -3 57 -11 l54
-14 -3 -48 c-11 -188 -116 -295 -231 -236 -71 35 -97 111 -80 232 14 94 17
103 42 96 12 -3 31 -6 42 -6z m415 -46 c41 -17 41 -17 35 -58 -4 -22 -9 -43
-10 -44 -2 -2 -20 2 -39 9 -55 20 -61 2 -20 -57 48 -69 55 -121 21 -160 -21
-24 -33 -29 -69 -29 -54 1 -138 24 -138 39 0 6 5 27 10 47 l10 36 50 -5 c28
-2 50 -1 50 3 0 4 -13 31 -29 59 -16 28 -31 60 -32 71 -12 84 66 127 161 89z
m154 -24 c14 -14 11 -51 -14 -190 -27 -153 -25 -140 -34 -168 -8 -25 -14 -25
-109 -1 l-38 10 35 40 c43 47 48 97 16 159 -25 49 -25 50 1 50 23 0 49 51 49
96 0 26 1 26 43 20 23 -4 46 -11 51 -16z m-310 -146 c9 -23 8 -24 -14 -24 -11
0 -20 2 -20 4 0 12 13 36 20 36 4 0 11 -7 14 -16z m-80 -130 c9 -23 8 -24 -18
-24 -32 0 -42 16 -19 29 25 14 30 13 37 -5z"/>
<path d="M2720 1761 c-13 -25 -13 -98 0 -106 5 -3 15 3 22 15 7 11 16 20 20
20 14 0 9 -99 -6 -135 -12 -29 -20 -35 -45 -35 -22 0 -39 -11 -70 -46 -43 -49
-44 -69 -5 -61 20 4 22 1 17 -23 -11 -58 41 -39 94 33 18 23 23 41 20 67 -2
19 3 51 11 70 8 21 12 53 10 82 -5 45 -4 47 21 50 l26 3 -41 43 c-46 47 -59
51 -74 23z m51 -22 c34 -24 38 -39 8 -32 -15 4 -27 0 -35 -12 -8 -10 -15 -17
-17 -14 -6 6 4 79 10 79 3 0 18 -9 34 -21z m-41 -236 c0 -15 -65 -73 -82 -73
-27 0 -22 14 17 49 33 29 65 41 65 24z m24 -36 c-6 -22 -72 -97 -85 -97 -16 0
8 49 41 87 37 42 55 46 44 10z"/>
<path d="M708 1637 c40 -43 21 -52 -23 -11 -31 29 -47 24 -20 -6 20 -23 13
-39 -9 -21 -8 7 -17 8 -20 3 -3 -6 7 -18 22 -28 15 -10 46 -37 70 -62 42 -42
74 -53 37 -12 -10 11 -16 22 -13 25 10 10 37 -7 43 -26 4 -10 13 -19 21 -19
19 0 18 19 -1 26 -16 6 -21 34 -6 34 4 0 21 -10 36 -22 25 -20 27 -20 17 -2
-6 11 -22 26 -36 33 -14 8 -28 22 -32 33 -3 10 -10 18 -15 18 -14 0 -11 -16 6
-30 17 -14 20 -30 5 -30 -19 0 -52 41 -45 57 6 16 -30 63 -48 63 -6 0 -1 -10
11 -23z m17 -67 c10 -11 16 -23 12 -26 -6 -7 -56 27 -57 39 0 14 27 7 45 -13z"/>
<path d="M410 1595 c0 -10 -6 -12 -17 -8 -16 6 -16 5 -4 -10 12 -15 11 -17
-10 -18 -18 -1 -19 -2 -6 -6 14 -4 16 -8 6 -19 -14 -17 2 -19 19 -2 9 9 12 7
12 -10 0 -12 5 -22 10 -22 6 0 10 8 10 18 0 14 2 15 10 2 5 -8 12 -11 16 -7 4
3 1 13 -6 22 -10 12 -9 15 6 15 15 0 16 2 5 9 -11 7 -11 9 0 13 8 3 11 9 7 13
-4 4 -14 2 -23 -5 -13 -10 -15 -9 -15 9 0 11 -4 21 -10 21 -5 0 -10 -7 -10
-15z"/>
<path d="M286 1301 c-21 -24 -14 -57 15 -66 43 -14 70 53 30 75 -25 13 -25 13
-45 -9z m52 -24 c4 -20 -25 -34 -40 -19 -15 15 -1 44 19 40 10 -2 19 -11 21
-21z"/>
<path d="M2620 1254 c0 -14 -3 -14 -15 -4 -18 15 -20 -1 -3 -18 9 -9 7 -12
-12 -13 -18 -1 -20 -3 -7 -6 14 -4 16 -8 6 -19 -14 -17 2 -19 19 -2 9 9 12 7
12 -10 0 -12 5 -22 11 -22 6 0 8 7 5 16 -5 12 -1 14 16 8 20 -6 21 -5 9 10
-12 14 -11 16 5 17 12 0 14 3 6 6 -10 4 -10 8 -1 19 8 9 8 14 1 14 -6 0 -14
-4 -17 -10 -11 -18 -23 -11 -18 10 3 11 0 20 -6 20 -6 0 -11 -7 -11 -16z"/>
<path d="M222 1036 c-10 -22 -14 -24 -40 -14 -64 25 -84 -23 -30 -74 37 -34
105 -71 117 -64 15 9 24 133 11 155 -15 28 -44 26 -58 -3z m46 -65 c-2 -33 -7
-63 -10 -67 -14 -13 -118 69 -118 94 0 14 14 14 65 -3 16 -5 23 0 33 27 19 50
35 22 30 -51z"/>
<path d="M2665 909 c-20 -16 -29 -19 -38 -10 -10 10 -47 16 -47 7 0 -3 5 -17
10 -32 9 -22 7 -31 -10 -49 -24 -26 -14 -39 23 -30 18 5 26 1 35 -19 15 -34
28 -33 41 4 8 24 16 30 40 30 38 0 40 14 5 36 -20 14 -25 24 -22 46 6 38 -4
42 -37 17z m-1 -45 c22 -8 20 -31 -3 -44 -26 -13 -28 -13 -35 6 -4 9 -1 23 5
30 13 16 12 16 33 8z"/>
<path d="M330 626 c-29 -11 -34 -17 -31 -37 1 -13 7 -32 12 -42 9 -16 12 -16
39 -2 37 19 54 19 70 0 20 -25 -5 -45 -57 -45 -33 0 -50 -6 -68 -25 -33 -32
-33 -68 0 -83 34 -16 45 -15 45 3 0 18 31 35 65 35 40 0 82 26 93 58 11 34 -6
94 -36 124 -24 25 -87 31 -132 14z m117 -21 c29 -20 48 -87 33 -115 -13 -25
-35 -36 -88 -45 -26 -4 -48 -15 -55 -26 -14 -22 -30 -24 -46 -5 -19 23 23 66
64 66 66 0 105 32 85 70 -15 27 -46 33 -82 16 -39 -20 -35 -21 -41 10 -3 19 1
28 17 34 34 14 90 11 113 -5z"/>
<path d="M728 546 c-6 -14 -17 -26 -23 -26 -7 0 -18 -7 -25 -15 -10 -12 -7
-15 13 -20 15 -4 28 -16 31 -31 8 -29 22 -31 31 -3 4 11 18 25 31 31 30 14 30
22 -1 36 -14 6 -25 18 -25 26 0 27 -20 28 -32 2z m38 -39 c11 -6 10 -11 -4
-26 -16 -17 -18 -17 -35 0 -17 18 -17 19 0 37 10 10 20 13 22 7 2 -5 10 -14
17 -18z"/>
<path d="M2607 494 c-3 -3 1 -24 9 -47 14 -39 13 -41 -11 -67 -14 -14 -25 -29
-25 -33 0 -4 18 -7 40 -7 34 0 40 -3 40 -21 0 -25 17 -59 30 -59 5 0 15 18 21
41 14 43 17 46 63 52 41 5 43 22 5 37 -30 13 -31 16 -26 57 5 49 -6 55 -44 24
-23 -18 -24 -18 -60 5 -20 12 -39 20 -42 18z m117 -86 c8 -23 6 -31 -12 -48
-25 -23 -31 -24 -55 -5 -17 12 -17 18 -6 48 9 27 17 34 38 33 18 -1 28 -9 35
-28z"/>
<path d="M231 363 c-14 -31 -3 -48 40 -58 21 -5 27 -1 37 20 16 34 16 32 -18
50 -39 20 -45 19 -59 -12z m54 -6 c10 -8 15 -19 11 -25 -15 -25 -61 -5 -50 21
7 21 15 21 39 4z"/>
<path d="M963 353 c-13 -8 -23 -21 -23 -28 0 -8 -5 -15 -11 -17 -5 -2 -11 -11
-13 -20 -1 -10 -5 -21 -9 -24 -11 -11 -8 -34 3 -34 6 0 10 8 10 18 0 24 51
102 67 102 6 0 15 5 18 10 9 15 -17 11 -42 -7z"/>
<path d="M2322 353 c-19 -9 -46 -31 -60 -49 -26 -32 -28 -33 -84 -27 -32 3
-58 2 -58 -2 0 -5 14 -30 31 -57 l32 -49 -22 -23 c-41 -43 -20 -61 34 -28 29
18 30 18 70 -5 22 -12 50 -23 63 -23 19 0 22 -5 22 -45 0 -59 25 -62 40 -5 11
39 12 40 56 40 l46 0 -41 51 c-42 53 -47 64 -33 73 13 8 14 80 2 111 -11 29
-37 54 -55 54 -5 1 -25 -7 -43 -16z m70 -20 c23 -21 26 -103 3 -103 -8 0 -15
4 -15 9 0 5 -22 18 -50 30 -27 12 -50 25 -50 29 0 11 63 52 79 52 8 0 23 -7
33 -17z m-57 -95 c36 -18 65 -36 65 -40 0 -4 -8 -4 -17 -1 -10 4 -4 -7 15 -26
39 -39 41 -68 7 -81 -17 -7 -25 -17 -25 -34 0 -14 -5 -28 -11 -32 -8 -5 -10 4
-7 29 3 29 0 38 -17 45 -102 48 -140 70 -156 91 -22 27 -22 62 -1 69 11 3 12
0 2 -17 -9 -17 -9 -26 1 -37 26 -31 69 -1 50 35 -8 14 -8 21 2 24 21 9 25 8
92 -25z"/>
<path d="M2270 175 c-10 -12 -10 -18 0 -30 17 -20 37 -19 49 3 18 34 -24 57
-49 27z"/>
<path d="M2362 143 c-13 -26 -4 -43 24 -43 29 0 41 24 24 45 -17 20 -37 19
-48 -2z"/>
<path d="M523 339 c-7 -7 -13 -18 -13 -23 0 -6 -14 -19 -30 -28 -58 -33 -60
-99 -4 -128 16 -8 35 -23 43 -34 11 -15 22 -17 65 -12 64 8 65 8 99 0 23 -5
33 0 67 34 50 49 53 82 10 114 -16 12 -30 27 -30 33 0 6 -11 22 -24 34 -20 19
-32 22 -58 17 -40 -8 -45 -8 -83 0 -18 3 -35 0 -42 -7z m157 -9 c11 -6 24 -19
30 -30 9 -17 6 -24 -17 -44 -22 -19 -25 -27 -16 -37 15 -16 44 -4 50 21 10 37
43 13 43 -31 0 -32 -50 -79 -84 -79 -20 0 -23 5 -22 38 1 27 -3 37 -14 37 -10
0 -15 -10 -15 -30 0 -38 -10 -45 -61 -45 -50 0 -60 9 -33 28 27 18 22 56 -8
60 -17 3 -24 -3 -29 -22 -3 -14 -9 -26 -12 -26 -13 0 -42 34 -42 49 0 25 29
61 49 61 12 0 21 10 25 26 6 21 11 25 39 22 30 -3 32 -5 29 -36 -3 -23 1 -34
13 -38 27 -11 41 12 28 46 -14 37 8 51 47 30z"/>
<path d="M1280 330 c0 -5 10 -9 23 -9 12 1 31 -2 42 -7 18 -7 18 -6 6 9 -14
18 -71 24 -71 7z"/>
<path d="M1241 292 c-12 -18 -21 -44 -20 -64 l1 -33 11 41 c7 23 18 49 26 58
8 9 11 19 9 22 -3 3 -15 -8 -27 -24z"/>
<path d="M1555 309 c-4 -6 2 -9 17 -8 43 4 57 -1 63 -21 3 -11 11 -20 16 -20
14 0 11 15 -10 38 -19 23 -75 30 -86 11z"/>
<path d="M1540 237 c0 -8 19 -31 41 -51 l41 -36 -18 -27 c-10 -16 -16 -29 -13
-30 2 -2 -13 -15 -33 -30 -34 -24 -56 -55 -26 -36 48 29 98 95 98 130 0 7 5
13 10 13 6 0 10 7 10 15 0 20 -18 19 -22 0 -2 -13 -9 -11 -35 7 -18 13 -33 28
-33 35 0 6 -4 15 -10 18 -5 3 -10 0 -10 -8z"/>
<path d="M1942 197 c-11 -24 -34 -54 -52 -67 -19 -14 -28 -26 -21 -28 17 -6
77 58 95 102 21 52 1 45 -22 -7z"/>
<path d="M1335 193 c-4 -13 -11 -23 -15 -23 -4 0 -10 -7 -14 -15 -9 -24 10
-17 28 11 10 14 15 31 12 37 -2 7 -8 2 -11 -10z"/>
<path d="M1255 99 c-17 -17 -46 -32 -67 -36 -21 -3 -38 -10 -38 -15 0 -13 45
-3 86 19 31 16 32 16 72 -17 22 -17 46 -30 54 -27 9 3 7 7 -7 13 -11 4 -25 13
-32 18 -7 6 -20 17 -28 25 -12 9 -14 16 -6 24 13 13 15 28 4 26 -5 -1 -21 -14
-38 -30z"/>
<path d="M1680 122 c0 -9 73 -33 80 -26 6 7 -22 24 -31 18 -4 -2 -10 0 -14 6
-7 12 -35 14 -35 2z"/>
<path d="M1010 71 c0 -6 5 -12 10 -12 6 -1 14 -2 19 -3 5 0 13 -4 17 -8 10
-11 34 -10 34 1 0 5 -10 11 -22 14 -13 2 -31 8 -40 12 -11 4 -18 3 -18 -4z"/>
</g>
</svg>
