<?xml version="1.0" standalone="no"?>
<!DOCTYPE svg PUBLIC "-//W3C//DTD SVG 20010904//EN"
 "http://www.w3.org/TR/2001/REC-SVG-20010904/DTD/svg10.dtd">
<svg version="1.0" xmlns="http://www.w3.org/2000/svg"
 width="300.000000pt" height="300.000000pt" viewBox="0 0 300.000000 300.000000"
 preserveAspectRatio="xMidYMid meet">
<metadata>
Created by potrace 1.10, written by Peter Selinger 2001-2011
</metadata>
<g transform="translate(0.000000,300.000000) scale(0.100000,-0.100000)"
fill="#000000" stroke="none">
<path d="M1383 2944 c-26 -31 -50 -60 -53 -64 -3 -4 -43 -15 -90 -25 -184 -36
-356 -102 -488 -188 l-73 -47 -107 0 c-59 0 -112 -4 -118 -8 -26 -17 -34 -53
-29 -132 4 -80 3 -83 -24 -109 -16 -14 -40 -34 -54 -44 -40 -27 -76 -79 -81
-118 -2 -20 -22 -71 -44 -115 -83 -164 -136 -355 -148 -534 -6 -76 -11 -98
-26 -108 -26 -19 -25 -86 3 -105 16 -12 23 -32 30 -93 11 -85 37 -193 71 -289
22 -61 92 -213 106 -227 4 -4 6 304 4 685 l-3 692 23 70 c18 55 34 80 76 122
29 29 56 53 60 53 4 0 13 -9 20 -20 12 -19 23 -20 237 -20 l224 0 76 -127 c49
-85 75 -139 75 -159 0 -39 20 -56 57 -52 37 4 58 44 39 73 -7 11 -23 22 -35
25 -15 3 -42 41 -86 119 -36 62 -65 115 -65 117 0 2 6 4 13 4 8 0 21 8 30 18
14 15 17 41 17 135 0 151 4 147 -179 147 -74 0 -131 4 -125 8 5 4 36 19 69 31
33 13 83 36 110 51 53 29 177 78 210 83 11 1 25 6 31 10 7 4 30 8 51 10 22 2
45 7 52 11 38 24 13 -16 -68 -108 -50 -58 -91 -109 -91 -114 0 -5 11 -19 25
-32 14 -13 25 -20 25 -16 0 4 -10 16 -22 26 l-23 18 21 24 c11 12 60 69 108
126 52 60 95 102 105 102 10 0 35 18 54 39 31 35 36 37 39 20 3 -19 5 -19 36
9 38 34 39 41 8 64 -24 18 -25 17 -73 -38z m-405 -476 l3 -108 -256 0 -255 0
0 103 c0 57 3 107 7 111 4 3 117 5 252 4 l246 -3 3 -107z m-740 -1016 c0 -301
-2 -550 -5 -555 -14 -22 -73 107 -73 160 0 13 -4 23 -10 23 -5 0 -10 13 -10
28 0 15 -4 32 -9 37 -14 15 -30 159 -19 166 5 3 2 9 -7 13 -9 3 -14 10 -10 15
3 6 -4 15 -15 21 -24 13 -27 62 -5 80 8 7 15 19 15 26 0 8 8 15 18 15 15 1 15
2 0 6 -13 3 -16 13 -12 46 9 87 26 193 34 222 43 149 65 212 75 220 12 10 15
16 15 38 0 9 2 9 9 -1 4 -8 8 -260 9 -560z"/>
<path d="M520 2510 c0 -19 7 -20 200 -20 193 0 200 1 200 20 0 19 -7 20 -200
20 -193 0 -200 -1 -200 -20z"/>
<path d="M685 2440 c-15 -24 11 -30 121 -30 105 0 115 2 112 18 -3 15 -18 17
-115 20 -69 2 -114 -1 -118 -8z"/>
<path d="M1425 2873 c-11 -3 -69 -63 -130 -134 -141 -166 -159 -189 -149 -189
5 0 19 15 31 33 13 17 37 48 55 67 18 19 58 64 88 100 72 85 101 113 109 103
3 -4 65 -9 136 -10 80 -1 153 -8 190 -17 32 -9 71 -16 87 -16 15 0 30 -4 33
-10 3 -5 16 -10 29 -10 12 0 26 -3 29 -7 12 -12 110 -43 118 -37 5 3 9 1 9 -4
0 -6 -7 -13 -16 -16 -9 -4 -14 -9 -11 -12 3 -3 24 8 47 25 23 16 47 28 53 25
17 -8 60 -64 60 -79 0 -8 11 -19 24 -26 13 -7 23 -16 23 -19 0 -4 19 -20 43
-35 41 -28 119 -90 184 -148 17 -16 33 -37 36 -48 5 -19 -10 -19 -718 -19
-472 0 -726 -3 -730 -10 -4 -7 248 -10 749 -10 l756 0 42 -37 c24 -21 49 -43
56 -50 7 -7 25 -38 40 -70 l27 -58 0 -717 c0 -395 1 -718 2 -718 2 0 23 39 47
88 76 152 116 282 141 455 10 72 10 87 -1 87 -8 0 -21 11 -30 25 -15 23 -15
27 0 50 9 14 23 25 31 25 18 0 18 -4 5 135 -18 183 -67 350 -151 516 -24 46
-42 87 -41 91 5 20 -40 98 -74 127 -22 18 -91 83 -154 145 -63 61 -149 134
-190 161 -41 28 -75 55 -75 60 0 6 -22 38 -50 72 l-50 62 -31 -30 -32 -31 -64
25 c-174 70 -472 116 -583 90z m1345 -858 c5 3 20 -28 35 -67 15 -40 29 -80
33 -88 3 -8 7 -22 8 -30 1 -8 9 -46 19 -85 9 -38 18 -90 21 -115 2 -25 7 -62
10 -83 5 -31 1 -50 -22 -92 -27 -53 -27 -54 -10 -93 22 -49 26 -86 15 -142 -5
-25 -14 -72 -20 -105 -6 -33 -15 -64 -18 -70 -4 -5 -16 -35 -26 -66 -10 -30
-28 -68 -41 -85 l-24 -29 1 585 c0 322 3 579 6 572 2 -6 8 -10 13 -7z"/>
<path d="M1585 2673 c-33 -8 -78 -18 -100 -24 -22 -5 -55 -12 -73 -16 -40 -7
-47 -20 -33 -64 l11 -34 -5 40 -4 40 132 29 c72 16 136 33 142 37 11 11 7 10
-70 -8z"/>
<path d="M1565 2585 c-93 -23 -163 -43 -155 -44 9 -1 40 5 70 13 30 8 100 24
155 36 95 21 151 40 115 39 -8 0 -91 -20 -185 -44z"/>
<path d="M2433 2218 c-12 -24 -32 -58 -43 -75 l-22 -33 92 0 c50 0 90 3 88 8
-15 33 -81 142 -87 142 -4 0 -17 -19 -28 -42z m47 -34 c0 -8 5 -14 10 -14 6 0
10 -7 10 -15 0 -11 -11 -15 -40 -15 -22 0 -40 2 -40 5 0 3 10 19 22 35 21 29
38 31 38 4z"/>
<path d="M1301 2105 c-80 -21 -140 -50 -128 -61 2 -2 28 6 58 17 195 75 438
60 616 -38 41 -23 45 -23 396 -23 346 0 355 0 360 20 3 12 14 20 27 20 13 0
24 -8 27 -20 3 -12 14 -20 26 -20 20 0 20 1 -3 25 -28 30 -62 32 -98 5 -27
-20 -39 -21 -348 -18 l-319 3 -65 31 c-119 58 -193 76 -330 80 -109 4 -137 1
-219 -21z"/>
<path d="M473 2003 c104 -2 270 -2 370 0 100 1 16 2 -188 2 -203 0 -285 -1
-182 -2z"/>
<path d="M1405 1989 c-79 -12 -168 -42 -232 -79 -116 -67 -234 -205 -280 -329
l-20 -53 -200 1 c-220 2 -252 -4 -291 -54 -20 -25 -22 -40 -22 -155 0 -144 10
-168 78 -197 54 -22 268 -16 301 9 69 52 176 43 241 -22 46 -46 66 -116 50
-170 -10 -34 -10 -36 42 -83 161 -145 418 -195 631 -123 367 124 543 539 378
891 -118 252 -404 406 -676 364z m183 -33 c141 -15 292 -101 394 -227 43 -52
93 -155 114 -231 18 -69 18 -232 -1 -303 -71 -275 -314 -463 -599 -465 -136 0
-290 55 -396 143 -51 43 -53 46 -55 98 -1 30 -10 72 -20 94 -10 22 -17 44 -16
50 2 5 -1 7 -5 3 -4 -4 -20 4 -36 17 -58 49 -142 55 -217 17 -31 -16 -54 -18
-166 -15 -141 5 -165 13 -195 67 -13 24 -13 28 0 36 24 16 73 0 98 -31 28 -34
41 -36 72 -9 27 24 36 25 47 6 11 -19 78 -39 105 -31 18 5 20 4 8 -4 -13 -10
-13 -11 0 -11 20 1 92 45 84 53 -13 12 40 29 73 22 28 -5 34 -10 30 -25 -3
-12 3 -21 20 -29 29 -13 38 -5 74 66 21 40 21 43 5 76 -9 19 -16 51 -16 71 0
27 -6 40 -24 51 -29 19 -54 10 -97 -38 l-27 -30 -31 36 c-28 31 -85 55 -114
49 -4 -1 -21 -4 -37 -5 -17 -2 -38 -11 -48 -20 -24 -22 -38 -21 -62 3 -11 11
-25 20 -31 20 -6 0 -36 -25 -68 -55 -32 -30 -61 -55 -66 -55 -4 0 -5 21 -2 47
4 37 12 54 37 76 l31 28 202 -2 c201 -1 253 6 254 34 0 23 47 112 89 173 73
104 184 187 309 229 41 14 197 35 215 29 3 -1 33 -5 68 -8z m-1048 -586 c0
-63 2 -70 20 -70 16 0 20 7 20 30 0 45 54 100 105 106 77 10 143 -59 130 -137
-9 -53 -62 -99 -113 -99 -46 0 -99 32 -107 63 -6 22 -9 23 -31 13 -18 -8 -24
-19 -24 -43 0 -23 -5 -33 -15 -33 -10 0 -15 11 -15 35 l0 35 -54 0 c-30 0 -57
4 -61 9 -7 12 115 160 133 160 8 1 12 -19 12 -69z m421 58 c0 -7 0 -36 -1 -64
-1 -44 2 -52 19 -57 27 -7 28 -37 0 -37 -17 0 -20 -5 -17 -32 2 -24 -1 -33
-14 -36 -15 -3 -18 4 -18 32 l0 36 -55 0 c-41 0 -55 4 -55 14 0 17 117 156
131 156 5 0 9 -6 10 -12z"/>
<path d="M1177 1680 c-29 -23 -41 -60 -28 -92 5 -13 57 -72 116 -132 l106
-109 -109 -111 c-62 -63 -112 -123 -116 -139 -15 -61 50 -119 109 -97 16 6 74
56 130 110 56 55 107 100 114 100 7 0 55 -43 107 -95 112 -113 143 -132 185
-114 37 15 59 45 59 82 0 23 -22 51 -110 141 -60 62 -110 116 -110 121 0 5 47
56 105 115 60 62 107 119 111 136 14 55 -45 114 -101 100 -18 -5 -71 -49 -135
-112 -58 -57 -110 -104 -116 -104 -5 0 -52 43 -104 96 -128 128 -161 145 -213
104z m199 -131 l120 -120 120 120 c103 104 124 121 151 121 34 0 53 -21 53
-60 0 -14 -41 -62 -122 -141 l-122 -119 122 -123 c128 -128 140 -150 105 -189
-32 -35 -54 -22 -182 106 l-124 124 -125 -124 c-128 -127 -148 -139 -184 -107
-39 35 -25 61 105 190 l124 121 -124 124 c-73 72 -123 131 -123 142 0 28 29
56 59 56 20 0 55 -29 147 -121z"/>
<path d="M652 1384 c-51 -36 -46 -111 10 -140 81 -42 158 66 93 131 -28 29
-70 32 -103 9z m78 -36 c24 -26 24 -28 4 -56 -20 -29 -58 -28 -77 1 -11 17
-12 28 -4 43 22 40 47 44 77 12z"/>
<path d="M478 1340 l-28 -35 26 -3 c33 -4 36 -1 32 39 l-3 34 -27 -35z"/>
<path d="M896 1335 l-27 -35 30 0 c29 0 31 3 31 35 0 19 -2 35 -4 35 -2 0 -16
-16 -30 -35z"/>
<path d="M1989 1930 c105 -87 189 -213 237 -355 24 -71 27 -96 28 -220 1 -121
-2 -150 -23 -215 -28 -90 -70 -177 -116 -242 -39 -54 -39 -62 0 -20 32 34 95
156 125 242 20 57 24 85 24 220 1 145 -1 161 -27 240 -51 150 -129 270 -232
352 -32 27 -63 48 -68 48 -4 0 19 -22 52 -50z"/>
<path d="M977 1923 c-56 -49 -134 -147 -169 -215 -36 -69 -59 -138 -47 -138 5
0 9 6 9 13 0 19 66 152 100 203 17 24 61 73 97 109 73 72 78 85 10 28z"/>
<path d="M2610 1919 c-12 -8 -11 -9 5 -5 29 8 46 -6 55 -45 7 -32 8 -32 9 -6
1 15 -8 36 -19 47 -23 23 -29 24 -50 9z"/>
<path d="M2586 1884 c-13 -34 -6 -112 12 -131 9 -10 13 -12 7 -4 -5 7 -10 45
-10 82 0 38 -1 69 -1 69 -1 0 -5 -7 -8 -16z"/>
<path d="M2950 1420 c8 -14 8 -26 0 -41 -13 -24 -8 -36 8 -17 20 25 14 78 -9
78 -6 0 -5 -9 1 -20z"/>
<path d="M681 1050 c-25 -55 -26 -93 -2 -145 53 -118 207 -148 297 -58 19 18
34 41 34 50 0 12 -11 6 -39 -21 -119 -116 -287 -52 -285 111 0 28 6 58 13 67
7 8 11 21 8 28 -3 7 -14 -7 -26 -32z"/>
<path d="M744 1045 c-4 -9 -2 -21 4 -27 15 -15 44 -1 40 19 -4 23 -36 29 -44
8z"/>
<path d="M910 1045 c-10 -11 -10 -19 -2 -27 15 -15 44 -2 40 19 -4 23 -22 27
-38 8z"/>
<path d="M781 973 c-27 -26 -35 -46 -32 -80 2 -25 21 -13 35 22 8 19 27 40 41
47 22 10 30 8 53 -9 14 -11 29 -31 32 -44 9 -36 36 -31 32 6 -4 42 -53 85 -97
85 -24 0 -44 -8 -64 -27z"/>
<path d="M2002 818 c-27 -27 -8 -88 28 -88 13 0 35 -33 68 -102 2 -5 -3 -8
-11 -8 -39 0 -47 -27 -47 -150 0 -114 1 -120 23 -135 20 -13 66 -15 277 -15
223 0 255 2 271 16 17 15 19 33 19 139 0 90 -4 126 -13 134 -9 7 -93 12 -237
13 l-222 3 -37 65 c-21 37 -35 75 -33 88 2 13 -2 30 -8 38 -15 17 -61 19 -78
2z m586 -345 l-3 -108 -250 0 -250 0 -3 108 -3 107 256 0 256 0 -3 -107z"/>
<path d="M2142 513 c3 -16 18 -18 112 -21 79 -2 112 1 117 10 15 24 -3 28
-117 28 -105 0 -115 -2 -112 -17z"/>
<path d="M2140 430 c0 -19 7 -20 200 -20 193 0 200 1 200 20 0 19 -7 20 -200
20 -193 0 -200 -1 -200 -20z"/>
<path d="M342 792 c18 -8 87 -84 106 -117 8 -14 11 -16 12 -5 0 15 -71 108
-94 122 -6 4 -18 7 -26 7 -12 0 -12 -2 2 -7z"/>
<path d="M995 754 c89 -79 247 -154 365 -172 94 -15 261 -6 345 17 78 22 214
88 244 119 20 19 11 16 -72 -32 -276 -157 -608 -132 -856 64 -62 49 -80 52
-26 4z"/>
<path d="M301 737 c0 -21 4 -48 11 -60 14 -28 56 -64 80 -70 27 -7 22 0 -11
17 -36 19 -63 61 -72 111 l-6 40 -2 -38z"/>
<path d="M268 673 c-8 -35 8 -93 25 -93 6 0 8 -3 4 -6 -8 -8 62 -74 90 -85 44
-16 59 -8 18 10 -45 20 -112 89 -120 123 -2 13 -6 37 -7 53 l-3 30 -7 -32z"/>
<path d="M2711 667 c-1 -21 -8 -52 -17 -68 -8 -17 -13 -36 -10 -42 2 -7 5 -5
5 4 1 9 7 22 15 28 18 15 26 57 16 90 -8 24 -8 23 -9 -12z"/>
<path d="M488 437 c20 -21 67 -63 104 -93 36 -30 71 -68 76 -83 13 -36 77
-108 113 -126 46 -25 118 -36 155 -26 28 8 51 4 127 -21 103 -34 155 -33 185
4 75 91 87 100 137 105 84 7 92 11 130 64 40 56 82 79 145 79 44 0 80 14 80
31 0 6 -10 3 -22 -5 -12 -9 -42 -16 -66 -16 -60 0 -109 -26 -140 -74 -38 -58
-50 -65 -108 -66 -38 0 -59 -6 -80 -22 -40 -32 -64 -57 -64 -66 0 -28 -73 -55
-93 -35 -4 3 -21 8 -39 10 -18 2 -36 9 -40 16 -4 6 -8 8 -8 3 0 -5 -6 -3 -14
3 -7 6 -22 8 -32 4 -17 -6 -18 -5 -4 12 14 17 14 18 -7 7 -30 -16 -38 -15 -23
3 11 14 10 14 -14 5 -46 -17 -142 -12 -185 10 -47 24 -103 89 -97 112 2 10 -1
16 -7 15 -6 -1 -13 8 -15 21 -2 16 -8 22 -18 18 -9 -4 -14 1 -14 15 0 11 -4
18 -9 15 -12 -8 -104 75 -94 84 4 5 32 10 61 12 52 3 53 3 47 -22 -5 -24 -5
-24 10 3 9 15 18 27 21 27 3 0 2 -5 -2 -11 -4 -7 0 -9 14 -5 12 4 26 1 35 -8
13 -14 16 -14 21 0 5 13 27 15 138 13 122 -1 134 -3 151 -23 18 -21 18 -21 8
0 -9 19 -7 21 22 22 17 0 35 -5 39 -11 6 -9 8 -9 8 0 0 9 102 12 436 13 257 0
443 4 453 10 10 6 -159 9 -474 10 -269 0 -624 1 -787 2 l-297 3 37 -38z"/>
<path d="M1784 326 c-10 -27 -78 -56 -132 -56 -48 0 -50 -2 -88 -52 -22 -29
-55 -61 -74 -70 -27 -14 -30 -18 -14 -18 23 0 62 34 107 93 25 33 33 37 73 37
62 0 163 55 141 77 -4 3 -9 -2 -13 -11z"/>
<path d="M2270 276 c-36 -18 -110 -56 -164 -85 -117 -60 -140 -63 -155 -21 -5
17 -17 30 -25 30 -20 0 -97 -30 -113 -44 -7 -6 -19 -17 -28 -24 -9 -8 -13 -21
-10 -32 4 -14 -2 -21 -27 -29 -35 -12 -220 -30 -259 -25 -13 1 -50 3 -82 3
-42 1 -56 4 -51 13 5 8 2 9 -9 5 -10 -3 -17 -3 -17 2 0 16 50 54 82 62 32 8
31 8 -7 4 -31 -3 -47 -13 -75 -45 -19 -22 -42 -40 -51 -40 -9 0 -27 -9 -40
-20 -18 -14 -20 -19 -8 -20 8 0 23 6 33 13 13 10 32 11 65 6 90 -15 285 -10
407 11 65 11 119 22 122 24 2 3 -15 15 -39 27 l-43 22 74 38 c41 21 78 38 82
39 4 0 4 -22 1 -50 -4 -33 -2 -50 5 -50 35 0 203 77 309 142 126 77 140 105
23 44z"/>
<path d="M1920 59 c0 -7 -10 -9 -27 -5 l-28 7 25 -21 c33 -26 40 -25 40 5 0
14 -2 25 -5 25 -3 0 -5 -5 -5 -11z"/>
<path d="M1177 43 c-13 -12 -7 -43 8 -43 8 0 15 6 15 13 0 18 -15 38 -23 30z"/>
</g>
</svg>
