<svg id="svg" version="1.1" xmlns="http://www.w3.org/2000/svg" xmlns:xlink="http://www.w3.org/1999/xlink" width="400" height="400" viewBox="0, 0, 400,400"><g id="svgg"><path id="path0" d="M0.000 0.624 C 0.000 1.016,0.185 1.136,0.500 0.947 C 0.887 0.715,0.884 0.789,0.490 1.277 C 0.070 1.795,0.088 1.948,0.590 2.141 C 0.925 2.270,1.186 2.606,1.168 2.887 C 1.144 3.289,1.093 3.292,0.935 2.900 C 0.824 2.625,0.568 2.400,0.367 2.400 C 0.145 2.400,0.000 80.509,0.000 200.000 C 0.000 319.491,0.145 397.600,0.367 397.600 C 0.568 397.600,0.824 397.375,0.935 397.100 C 1.093 396.708,1.144 396.711,1.168 397.113 C 1.186 397.394,0.925 397.730,0.590 397.859 C 0.088 398.052,0.070 398.205,0.490 398.723 C 0.884 399.211,0.887 399.285,0.500 399.053 C 0.185 398.864,0.000 398.984,0.000 399.376 C 0.000 399.940,19.124 400.000,200.000 400.000 C 380.876 400.000,400.000 399.940,400.000 399.376 C 400.000 398.984,399.815 398.864,399.500 399.053 C 399.113 399.285,399.116 399.211,399.510 398.723 C 399.930 398.205,399.912 398.052,399.410 397.859 C 399.075 397.730,398.814 397.394,398.832 397.113 C 398.856 396.711,398.907 396.708,399.065 397.100 C 399.176 397.375,399.432 397.600,399.633 397.600 C 399.855 397.600,400.000 319.491,400.000 200.000 C 400.000 80.509,399.855 2.400,399.633 2.400 C 399.432 2.400,399.176 2.625,399.065 2.900 C 398.907 3.292,398.856 3.289,398.832 2.887 C 398.814 2.606,399.075 2.270,399.410 2.141 C 399.912 1.948,399.930 1.795,399.510 1.277 C 399.116 0.789,399.113 0.715,399.500 0.947 C 399.815 1.136,400.000 1.016,400.000 0.624 C 400.000 0.060,380.876 0.000,200.000 0.000 C 19.124 0.000,0.000 0.060,0.000 0.624 M3.100 299.300 C 3.044 353.915,2.998 309.230,2.998 200.000 C 2.998 90.770,3.044 46.085,3.100 100.700 C 3.156 155.315,3.156 244.685,3.100 299.300 M397.100 299.300 C 397.044 353.915,396.998 309.230,396.998 200.000 C 396.998 90.770,397.044 46.085,397.100 100.700 C 397.156 155.315,397.156 244.685,397.100 299.300 M297.900 3.100 C 244.055 3.156,155.945 3.156,102.100 3.100 C 48.255 3.044,92.310 2.998,200.000 2.998 C 307.690 2.998,351.745 3.044,297.900 3.100 M145.559 126.951 C 145.920 127.385,145.839 127.549,145.179 127.721 C 144.718 127.842,144.243 128.314,144.124 128.770 C 143.825 129.912,143.200 129.816,143.200 128.629 C 143.200 126.955,144.686 125.899,145.559 126.951 M33.546 128.976 C 33.496 129.726,33.475 129.719,33.318 128.900 C 33.222 128.405,32.893 128.000,32.585 128.000 C 32.230 128.000,32.117 127.759,32.277 127.344 C 32.617 126.458,33.626 127.757,33.546 128.976 M39.186 129.500 C 39.172 132.043,39.138 132.142,38.600 131.200 C 38.286 130.650,38.015 130.380,37.999 130.600 C 37.982 130.820,37.714 130.415,37.404 129.700 C 37.075 128.945,36.546 128.400,36.139 128.400 C 35.621 128.400,35.557 128.283,35.890 127.950 C 36.138 127.703,36.807 127.500,37.377 127.500 C 37.948 127.500,38.512 127.343,38.631 127.150 C 39.087 126.412,39.200 126.889,39.186 129.500 M23.000 134.944 C 23.760 136.104,23.413 137.139,22.097 137.639 C 20.143 138.382,19.204 136.184,20.861 134.747 C 21.977 133.779,22.254 133.805,23.000 134.944 M152.153 139.182 C 154.596 140.111,154.437 135.876,154.440 199.996 C 154.443 264.141,154.603 259.886,152.153 260.818 C 150.063 261.613,36.010 261.304,34.406 260.499 C 31.859 259.222,32.012 263.074,32.012 200.000 C 32.012 136.926,31.859 140.778,34.406 139.501 C 36.010 138.696,150.063 138.387,152.153 139.182 M210.991 164.954 C 212.627 166.590,210.587 168.350,208.825 166.822 L 207.928 166.044 208.864 165.046 C 210.023 163.812,209.855 163.819,210.991 164.954 M222.229 164.971 C 222.543 165.286,222.800 165.736,222.800 165.971 C 222.800 166.207,222.993 166.400,223.229 166.400 C 223.464 166.400,223.387 166.670,223.057 167.000 C 221.660 168.397,219.503 166.760,220.553 165.100 C 221.090 164.251,221.478 164.221,222.229 164.971 M220.400 171.464 C 220.950 171.550,222.840 171.730,224.600 171.863 C 229.879 172.263,235.951 177.551,235.048 180.963 C 234.926 181.423,234.624 182.790,234.377 184.000 C 233.530 188.149,233.159 189.013,231.838 189.917 C 231.130 190.403,230.359 190.800,230.126 190.800 C 229.479 190.800,225.865 192.839,225.317 193.513 C 224.891 194.037,224.671 194.030,223.456 193.454 C 219.247 191.456,217.796 196.313,221.595 199.684 C 223.843 201.679,223.636 202.706,220.705 204.109 C 213.674 207.474,206.427 204.437,209.396 199.371 C 210.450 197.572,210.453 197.541,210.327 190.283 C 210.257 186.277,210.344 182.000,210.519 180.778 C 210.835 178.574,210.825 178.541,209.219 176.717 C 205.416 172.396,210.651 169.936,220.400 171.464 M309.038 172.235 C 310.227 172.798,311.200 173.418,311.200 173.614 C 311.200 173.809,311.938 174.700,312.840 175.593 C 314.568 177.304,314.924 179.360,313.225 177.823 C 311.384 176.157,309.096 179.567,310.277 182.217 C 310.751 183.281,310.985 184.822,310.991 186.914 C 310.997 189.100,311.162 190.129,311.544 190.365 C 312.408 190.900,312.592 194.137,311.862 195.962 C 311.202 197.611,311.458 198.856,312.865 200.838 C 313.988 202.420,312.004 205.172,309.684 205.251 C 301.555 205.527,299.473 204.073,301.400 199.462 C 301.730 198.672,302.000 197.380,302.000 196.590 C 302.000 195.800,302.205 194.342,302.455 193.348 C 302.997 191.194,302.444 188.844,301.038 187.327 L 300.138 186.357 298.490 187.679 C 296.570 189.218,296.516 189.480,297.655 191.719 C 298.290 192.968,298.559 194.387,298.699 197.238 L 298.888 201.076 297.372 202.548 C 296.538 203.358,295.393 204.110,294.828 204.218 C 294.263 204.326,292.630 204.763,291.200 205.189 C 285.390 206.919,280.462 206.135,280.387 203.469 C 280.307 200.661,277.816 200.814,274.600 203.825 L 272.200 206.072 269.600 205.805 C 268.170 205.658,266.190 205.494,265.200 205.442 C 264.210 205.389,262.177 205.026,260.683 204.635 C 258.094 203.958,257.897 203.958,256.492 204.624 C 255.354 205.164,254.039 205.316,250.717 205.288 C 248.350 205.269,246.311 205.421,246.184 205.626 C 245.839 206.184,239.514 206.065,238.784 205.487 C 237.144 204.191,234.401 199.103,234.400 197.356 C 234.400 197.112,235.149 196.062,236.064 195.023 C 237.707 193.156,238.298 190.699,237.265 190.029 C 233.913 187.855,238.199 179.976,242.372 180.641 C 243.320 180.792,244.482 180.600,245.830 180.068 C 247.152 179.546,248.059 179.392,248.430 179.627 C 248.744 179.825,249.405 179.991,249.900 179.994 C 250.395 179.997,250.800 180.160,250.800 180.357 C 250.800 180.553,251.245 180.825,251.789 180.961 C 253.207 181.317,254.269 182.620,254.544 184.340 C 254.675 185.160,255.150 186.225,255.600 186.707 C 256.618 187.801,257.015 189.650,256.456 190.695 C 255.751 192.013,255.719 199.178,256.417 199.619 C 257.431 200.260,257.792 200.046,258.800 198.200 C 259.341 197.210,259.877 196.394,259.992 196.387 C 260.106 196.379,260.627 196.018,261.149 195.583 L 262.097 194.793 260.425 191.494 L 258.752 188.195 259.567 186.398 C 260.016 185.409,260.386 184.291,260.391 183.913 C 260.426 181.168,269.286 177.473,270.627 179.644 C 270.748 179.840,271.297 180.000,271.846 180.000 C 274.091 180.000,276.426 180.889,276.969 181.952 C 278.097 184.157,278.112 186.096,277.011 187.362 C 275.759 188.801,275.754 189.353,276.963 192.274 C 277.493 193.553,278.028 194.918,278.153 195.306 C 278.471 196.298,280.167 196.869,281.400 196.400 C 281.950 196.191,282.400 196.141,282.400 196.290 C 282.400 196.438,282.601 196.359,282.847 196.113 C 283.176 195.784,282.913 194.863,281.847 192.618 C 281.051 190.941,280.400 189.396,280.400 189.185 C 280.400 188.973,280.220 188.800,280.000 188.800 C 279.780 188.800,279.600 188.011,279.600 187.047 C 279.600 183.825,285.943 179.225,289.588 179.803 C 290.585 179.962,292.332 180.121,293.472 180.157 C 295.103 180.210,295.925 180.498,297.337 181.512 C 299.623 183.153,300.337 183.116,301.730 181.285 C 302.607 180.132,302.805 179.532,302.619 178.600 C 301.264 171.841,303.506 169.618,309.038 172.235 M120.004 174.195 C 119.733 174.522,119.614 175.201,119.740 175.704 C 119.866 176.207,119.999 182.253,120.035 189.141 L 120.101 201.663 121.007 202.076 C 123.383 203.159,123.403 203.033,123.256 188.131 C 123.172 179.684,122.968 174.412,122.712 174.100 C 122.151 173.416,120.606 173.470,120.004 174.195 M162.240 174.983 C 162.614 175.357,162.914 176.453,162.977 177.676 C 163.087 179.843,164.091 181.200,165.583 181.200 C 167.445 181.200,170.400 178.727,170.400 177.168 C 170.400 172.740,177.569 173.135,178.229 177.600 C 178.376 178.590,178.810 179.760,179.195 180.200 C 181.457 182.787,181.524 185.303,179.346 185.849 C 177.603 186.287,177.058 188.027,177.781 190.849 C 178.122 192.178,178.400 194.189,178.400 195.318 C 178.400 196.844,178.608 197.581,179.209 198.186 C 182.421 201.419,182.656 201.939,181.761 203.825 C 181.022 205.382,180.735 205.503,177.076 205.796 C 173.667 206.070,172.294 205.479,170.115 202.801 L 168.521 200.840 167.660 202.004 C 167.187 202.644,166.800 203.321,166.800 203.508 C 166.800 204.174,165.145 205.613,164.697 205.337 C 164.447 205.182,163.383 205.101,162.332 205.157 C 159.902 205.286,158.324 204.385,157.430 202.358 C 156.224 199.625,156.939 175.828,158.243 175.328 C 158.549 175.211,158.800 174.840,158.800 174.505 C 158.800 173.713,161.320 174.063,162.240 174.983 M70.459 174.755 C 70.017 175.035,69.707 192.890,69.992 201.653 C 70.007 202.134,71.689 202.346,72.635 201.987 C 73.551 201.639,73.583 201.485,73.531 197.713 C 73.501 195.497,73.700 193.079,73.991 192.137 C 74.384 190.865,74.398 190.170,74.052 189.178 C 73.788 188.419,73.600 185.183,73.600 181.383 C 73.600 175.827,73.508 174.850,72.967 174.643 C 72.088 174.305,71.099 174.350,70.459 174.755 M83.200 176.150 C 83.200 176.452,83.470 177.465,83.800 178.400 C 84.571 180.585,84.567 184.225,83.792 186.422 C 83.018 188.615,83.484 189.175,85.234 188.153 C 88.914 186.002,89.315 179.451,85.941 176.611 C 84.635 175.513,83.200 175.271,83.200 176.150 M220.069 177.900 C 219.340 179.320,219.167 185.775,219.832 186.724 C 220.553 187.754,222.532 187.075,222.987 185.641 C 223.121 185.219,223.494 184.773,223.815 184.650 C 224.942 184.217,224.295 179.149,222.929 177.700 C 222.237 176.967,220.485 177.089,220.069 177.900 M198.200 180.048 C 200.850 181.424,202.975 183.240,203.820 184.852 C 205.988 188.990,206.205 192.896,204.376 194.875 C 203.126 196.227,203.065 196.732,203.799 199.602 C 204.265 201.423,202.213 203.613,198.812 204.923 C 195.488 206.204,191.602 207.025,191.243 206.523 C 191.109 206.336,190.550 205.962,190.000 205.692 C 187.837 204.628,184.186 201.657,183.931 200.754 C 182.605 196.041,182.281 188.061,183.373 186.970 C 183.666 186.677,184.680 185.183,185.626 183.649 L 187.347 180.860 189.733 180.439 C 191.045 180.208,192.497 179.754,192.959 179.431 C 194.247 178.529,195.576 178.685,198.200 180.048 M348.291 179.600 C 349.401 180.474,352.336 180.704,353.064 179.976 C 354.932 178.108,363.332 180.700,365.339 183.763 C 366.113 184.944,366.235 190.464,365.587 194.947 C 365.200 197.623,365.221 197.746,366.395 199.653 C 367.748 201.852,367.808 202.196,367.100 203.712 C 366.400 205.212,362.840 206.664,361.297 206.078 C 360.694 205.849,358.976 205.577,357.481 205.475 C 355.701 205.353,354.503 205.055,354.014 204.613 C 353.402 204.059,353.107 204.022,352.382 204.409 C 346.376 207.624,339.369 204.533,341.333 199.535 C 342.985 195.330,340.256 195.254,338.112 199.445 C 336.354 202.881,332.580 206.076,330.625 205.783 C 329.322 205.587,328.501 205.726,327.182 206.363 C 325.084 207.377,324.990 207.381,324.066 206.500 C 323.283 205.752,322.243 205.091,320.000 203.913 C 315.790 201.702,315.412 201.362,315.147 199.541 C 315.008 198.583,314.694 197.080,314.449 196.200 C 312.389 188.787,316.435 180.442,322.119 180.382 C 323.043 180.373,324.520 180.105,325.400 179.788 C 328.043 178.836,328.519 178.940,334.555 181.796 C 336.926 182.918,339.182 186.160,339.212 188.489 C 339.226 189.578,340.598 194.731,340.974 195.107 C 342.539 196.673,343.364 191.190,342.020 188.152 C 341.086 186.040,340.973 184.127,341.700 182.733 C 343.556 179.175,346.171 177.932,348.291 179.600 M105.855 183.911 C 105.750 184.081,105.865 184.978,106.112 185.903 C 106.434 187.107,106.442 188.165,106.142 189.631 C 105.836 191.124,105.852 192.234,106.200 193.738 C 106.553 195.260,106.567 196.468,106.255 198.348 C 105.848 200.796,105.869 200.927,106.785 201.668 C 108.325 202.916,110.229 202.531,110.094 201.000 C 110.036 200.340,109.890 196.920,109.770 193.400 C 109.650 189.880,109.358 186.498,109.121 185.884 C 108.484 184.235,106.424 182.990,105.855 183.911 M164.031 186.031 C 162.597 187.465,162.491 188.318,163.600 189.508 C 164.618 190.600,164.608 191.126,163.552 192.041 C 161.297 193.998,162.855 198.800,165.746 198.800 C 166.300 198.800,166.864 198.980,167.000 199.200 C 167.827 200.538,168.287 199.445,168.306 196.100 C 168.316 194.175,168.448 191.468,168.599 190.085 C 169.075 185.715,166.570 183.492,164.031 186.031 M133.451 186.412 C 129.886 190.650,132.101 200.768,136.822 201.805 C 138.574 202.190,138.586 202.002,136.975 199.360 C 135.640 197.172,135.554 196.840,135.792 194.800 C 135.933 193.590,136.039 192.420,136.028 192.200 C 135.647 184.954,135.312 184.201,133.451 186.412 M145.200 187.986 C 145.200 190.328,145.323 190.838,145.971 191.184 C 148.435 192.503,149.232 188.646,146.994 186.232 C 145.505 184.625,145.200 184.924,145.200 187.986 M269.600 186.567 C 269.600 186.915,269.885 187.200,270.233 187.200 C 270.940 187.200,270.817 186.339,270.075 186.092 C 269.814 186.005,269.600 186.218,269.600 186.567 M325.194 186.607 C 324.837 187.037,324.778 187.825,324.992 189.307 C 325.418 192.258,325.266 194.465,324.584 195.218 C 322.677 197.324,325.427 200.731,327.971 199.415 C 331.134 197.779,330.124 186.000,326.822 186.000 C 326.204 186.000,325.471 186.273,325.194 186.607 M193.700 186.667 C 193.000 186.947,193.076 188.599,193.817 189.214 C 194.658 189.912,195.299 189.212,195.131 187.780 C 194.997 186.635,194.583 186.313,193.700 186.667 M352.412 187.971 C 352.146 188.614,352.049 189.523,352.197 189.989 C 352.345 190.456,352.256 192.084,351.999 193.608 C 351.272 197.915,352.454 200.545,354.785 199.805 C 357.502 198.942,357.670 188.080,354.982 187.048 C 353.657 186.540,352.891 186.815,352.412 187.971 M193.665 195.551 C 193.371 195.738,193.191 196.320,193.265 196.845 C 193.438 198.066,195.216 198.343,196.689 197.378 L 197.726 196.699 196.763 195.958 C 195.729 195.163,194.527 195.005,193.665 195.551 M245.280 196.080 C 244.519 196.841,244.680 198.400,245.520 198.400 C 247.015 198.400,247.859 196.339,246.567 195.843 C 245.762 195.534,245.841 195.519,245.280 196.080 M284.400 196.325 C 284.400 197.236,286.282 199.014,287.579 199.329 C 289.294 199.745,290.250 198.193,289.030 196.973 C 287.619 195.562,284.400 195.112,284.400 196.325 M264.400 196.558 C 264.400 197.657,266.659 199.600,267.937 199.600 C 270.272 199.600,269.995 198.056,267.438 196.818 C 265.467 195.864,264.400 195.773,264.400 196.558 M95.462 197.131 C 93.753 199.020,95.318 202.400,97.902 202.400 C 99.627 202.400,99.795 201.880,98.639 200.114 C 98.094 199.281,97.528 198.105,97.381 197.500 C 97.070 196.224,96.400 196.095,95.462 197.131 M22.419 262.400 C 23.287 262.400,23.663 264.045,23.019 265.027 C 22.253 266.196,21.982 266.225,20.861 265.253 C 19.508 264.080,20.038 261.622,21.521 262.191 C 21.821 262.306,22.224 262.400,22.419 262.400 M39.200 270.649 C 39.200 272.703,39.088 273.213,38.700 272.920 C 38.425 272.712,37.768 272.519,37.240 272.491 C 36.088 272.431,35.062 271.600,36.139 271.600 C 36.538 271.600,37.056 271.082,37.346 270.393 C 37.625 269.730,37.960 269.293,38.090 269.423 C 38.220 269.554,38.446 269.287,38.590 268.830 C 39.039 267.417,39.200 267.897,39.200 270.649 M33.182 272.433 C 32.810 273.129,32.643 273.195,32.368 272.754 C 32.136 272.384,32.217 272.157,32.611 272.071 C 32.935 272.000,33.221 271.550,33.246 271.071 C 33.281 270.427,33.339 270.377,33.472 270.879 C 33.570 271.253,33.440 271.952,33.182 272.433 M144.124 271.230 C 144.243 271.686,144.718 272.158,145.179 272.279 C 145.839 272.451,145.920 272.615,145.559 273.049 C 144.686 274.101,143.200 273.045,143.200 271.371 C 143.200 270.184,143.825 270.088,144.124 271.230 M297.900 397.100 C 244.055 397.156,155.945 397.156,102.100 397.100 C 48.255 397.044,92.310 396.998,200.000 396.998 C 307.690 396.998,351.745 397.044,297.900 397.100 " stroke="none" fill="#f4f4f3" fill-rule="evenodd"></path><path id="path1" d="M36.112 141.608 C 34.611 142.212,34.600 142.632,34.600 200.000 C 34.600 258.139,34.590 257.788,36.237 258.414 C 38.567 259.300,150.303 258.897,151.200 258.000 C 151.921 257.279,152.578 218.403,152.120 203.600 C 152.090 202.610,152.033 200.091,151.994 198.002 C 151.900 193.008,151.662 192.551,149.695 193.605 C 148.471 194.261,147.438 194.400,143.786 194.400 C 139.075 194.400,138.400 194.638,138.400 196.298 C 138.400 198.940,142.331 200.067,145.645 198.377 C 149.310 196.507,150.954 198.023,148.795 201.282 C 144.982 207.038,133.971 206.289,130.843 200.061 C 128.360 195.119,128.792 188.108,131.826 184.130 C 135.789 178.935,145.189 179.186,149.277 184.598 C 152.098 188.332,151.988 189.168,151.995 163.900 C 152.000 143.330,151.980 142.780,151.200 142.000 C 150.329 141.129,38.251 140.747,36.112 141.608 M123.703 171.228 C 125.735 172.154,125.784 172.480,126.027 186.600 C 126.193 196.243,126.401 200.209,126.799 201.317 C 127.579 203.485,126.542 204.471,123.104 204.834 C 117.216 205.455,114.873 203.977,116.536 200.692 L 117.600 198.589 117.600 188.281 C 117.600 180.024,117.481 177.689,117.000 176.538 C 115.301 172.471,119.364 169.252,123.703 171.228 M78.000 171.984 C 87.464 172.654,91.207 175.835,90.708 182.785 C 90.280 188.737,86.769 191.876,79.685 192.637 C 75.707 193.064,74.439 197.126,77.200 200.600 C 79.672 203.710,78.248 204.800,71.715 204.800 C 65.635 204.800,64.422 203.788,66.500 200.447 C 67.373 199.043,67.400 198.690,67.400 188.600 C 67.400 178.533,67.371 178.151,66.500 176.677 C 64.537 173.356,66.096 171.988,72.200 171.671 C 72.640 171.648,75.250 171.789,78.000 171.984 M76.662 177.531 C 75.735 178.555,75.706 185.802,76.623 187.111 C 78.106 189.229,81.569 186.742,81.898 183.322 C 82.337 178.756,78.946 175.007,76.662 177.531 M107.846 181.165 C 111.386 182.773,112.374 185.432,112.392 193.400 C 112.403 198.216,112.477 198.718,113.390 200.200 C 115.646 203.863,112.124 206.212,106.795 204.598 C 104.578 203.927,104.295 203.924,102.092 204.542 C 93.668 206.906,88.935 200.685,94.220 194.197 C 96.332 191.603,96.324 191.660,94.805 190.205 C 89.558 185.178,100.295 177.736,107.846 181.165 M139.200 186.000 C 138.109 187.091,138.175 188.634,139.344 189.400 C 141.656 190.915,143.779 187.411,141.511 185.823 C 140.367 185.021,140.163 185.037,139.200 186.000 M101.067 186.267 C 100.920 186.413,100.800 187.235,100.800 188.093 C 100.800 189.794,102.406 190.220,103.319 188.762 C 104.295 187.202,102.320 185.013,101.067 186.267 M101.426 195.651 C 100.198 196.617,100.100 197.811,101.200 198.400 C 102.649 199.175,104.315 197.622,103.794 195.981 C 103.447 194.889,102.553 194.765,101.426 195.651 M99.296 217.700 C 100.270 218.451,100.280 219.572,99.343 222.900 C 99.103 223.751,98.078 223.785,97.008 222.976 C 96.526 222.611,95.803 222.468,95.162 222.608 C 94.391 222.778,93.784 222.567,92.897 221.820 C 91.362 220.529,91.198 220.540,89.775 222.029 C 88.622 223.235,88.548 223.253,85.867 222.985 C 83.245 222.723,83.063 222.763,81.401 223.956 C 79.423 225.377,77.303 225.588,74.938 224.600 C 72.897 223.747,72.339 223.829,69.481 225.400 C 65.429 227.627,64.154 226.866,64.477 222.412 C 64.780 218.218,67.207 217.206,71.368 219.540 C 73.584 220.783,74.098 220.763,75.600 219.379 C 76.150 218.872,77.050 218.351,77.600 218.220 C 78.571 217.991,78.984 218.183,81.770 220.159 C 82.577 220.731,82.955 220.805,83.301 220.459 C 83.553 220.207,84.271 220.000,84.896 220.000 C 85.521 220.000,86.738 219.640,87.600 219.200 C 89.495 218.233,90.855 218.195,93.332 219.039 L 95.206 219.677 96.617 218.439 C 98.202 217.047,98.383 216.997,99.296 217.700 M113.712 219.243 C 115.647 220.212,116.655 220.196,118.990 219.163 C 120.442 218.521,121.315 218.386,122.741 218.582 C 125.593 218.976,127.296 218.994,128.480 218.643 C 129.889 218.226,131.430 219.687,131.830 221.821 C 132.359 224.639,130.775 225.833,128.298 224.483 L 126.615 223.565 125.818 224.683 C 123.066 228.536,118.400 229.235,118.400 225.794 C 118.400 225.041,116.683 223.704,115.356 223.424 C 114.672 223.279,113.603 222.630,112.981 221.981 C 111.594 220.533,111.333 220.523,109.930 221.867 C 108.443 223.292,104.652 223.618,103.988 222.378 C 103.421 221.318,104.161 220.000,105.325 220.000 C 105.818 220.000,106.634 219.711,107.139 219.358 C 109.207 217.909,110.987 217.878,113.712 219.243 " stroke="none" fill="#e37c5a" fill-rule="evenodd"></path><path id="path2" d="M2.998 200.000 C 2.998 309.230,3.044 353.915,3.100 299.300 C 3.156 244.685,3.156 155.315,3.100 100.700 C 3.044 46.085,2.998 90.770,2.998 200.000 M396.998 200.000 C 396.998 309.230,397.044 353.915,397.100 299.300 C 397.156 244.685,397.156 155.315,397.100 100.700 C 397.044 46.085,396.998 90.770,396.998 200.000 M102.100 3.100 C 155.945 3.156,244.055 3.156,297.900 3.100 C 351.745 3.044,307.690 2.998,200.000 2.998 C 92.310 2.998,48.255 3.044,102.100 3.100 M143.829 127.029 C 143.161 127.696,142.958 129.600,143.553 129.600 C 143.748 129.600,144.004 129.227,144.124 128.770 C 144.243 128.314,144.718 127.842,145.179 127.721 C 145.839 127.549,145.920 127.385,145.559 126.951 C 144.969 126.240,144.601 126.256,143.829 127.029 M32.277 127.344 C 32.117 127.759,32.230 128.000,32.585 128.000 C 32.893 128.000,33.222 128.405,33.318 128.900 C 33.475 129.719,33.496 129.726,33.546 128.976 C 33.626 127.757,32.617 126.458,32.277 127.344 M38.631 127.150 C 38.512 127.343,37.948 127.500,37.377 127.500 C 36.807 127.500,36.138 127.703,35.890 127.950 C 35.557 128.283,35.621 128.400,36.139 128.400 C 36.546 128.400,37.075 128.945,37.404 129.700 C 37.714 130.415,37.982 130.820,37.999 130.600 C 38.015 130.380,38.286 130.650,38.600 131.200 C 39.138 132.142,39.172 132.043,39.186 129.500 C 39.200 126.889,39.087 126.412,38.631 127.150 M20.861 134.747 C 19.204 136.184,20.143 138.382,22.097 137.639 C 23.413 137.139,23.760 136.104,23.000 134.944 C 22.254 133.805,21.977 133.779,20.861 134.747 M208.864 165.046 L 207.928 166.044 208.825 166.822 C 210.587 168.350,212.627 166.590,210.991 164.954 C 209.855 163.819,210.023 163.812,208.864 165.046 M220.553 165.100 C 219.503 166.760,221.660 168.397,223.057 167.000 C 223.387 166.670,223.464 166.400,223.229 166.400 C 222.993 166.400,222.800 166.207,222.800 165.971 C 222.800 164.692,221.203 164.072,220.553 165.100 M212.400 171.367 C 207.094 172.408,206.422 173.538,209.219 176.717 C 210.825 178.541,210.835 178.574,210.519 180.778 C 210.344 182.000,210.257 186.277,210.327 190.283 C 210.453 197.541,210.450 197.572,209.396 199.371 C 206.427 204.437,213.674 207.474,220.705 204.109 C 223.636 202.706,223.843 201.679,221.595 199.684 C 217.796 196.313,219.247 191.456,223.456 193.454 C 224.671 194.030,224.891 194.037,225.317 193.513 C 225.865 192.839,229.479 190.800,230.126 190.800 C 230.359 190.800,231.130 190.403,231.838 189.917 C 233.159 189.013,233.530 188.149,234.377 184.000 C 234.624 182.790,234.926 181.423,235.048 180.963 C 235.951 177.551,229.879 172.263,224.600 171.863 C 222.840 171.730,220.950 171.550,220.400 171.464 C 217.093 170.946,214.694 170.917,212.400 171.367 M302.822 172.400 C 301.946 173.415,301.895 174.986,302.619 178.600 C 302.805 179.532,302.607 180.132,301.730 181.285 C 300.337 183.116,299.623 183.153,297.337 181.512 C 295.925 180.498,295.103 180.210,293.472 180.157 C 292.332 180.121,290.585 179.962,289.588 179.803 C 285.943 179.225,279.600 183.825,279.600 187.047 C 279.600 188.011,279.780 188.800,280.000 188.800 C 280.220 188.800,280.400 188.973,280.400 189.185 C 280.400 189.396,281.051 190.941,281.847 192.618 C 282.913 194.863,283.176 195.784,282.847 196.113 C 282.601 196.359,282.400 196.438,282.400 196.290 C 282.400 196.141,281.950 196.191,281.400 196.400 C 280.167 196.869,278.471 196.298,278.153 195.306 C 278.028 194.918,277.493 193.553,276.963 192.274 C 275.754 189.353,275.759 188.801,277.011 187.362 C 278.112 186.096,278.097 184.157,276.969 181.952 C 276.426 180.889,274.091 180.000,271.846 180.000 C 271.297 180.000,270.748 179.840,270.627 179.644 C 269.286 177.473,260.426 181.168,260.391 183.913 C 260.386 184.291,260.016 185.409,259.567 186.398 L 258.752 188.195 260.425 191.494 L 262.097 194.793 261.149 195.583 C 260.627 196.018,260.106 196.379,259.992 196.387 C 259.877 196.394,259.341 197.210,258.800 198.200 C 257.792 200.046,257.431 200.260,256.417 199.619 C 255.719 199.178,255.751 192.013,256.456 190.695 C 257.015 189.650,256.618 187.801,255.600 186.707 C 255.150 186.225,254.675 185.160,254.544 184.340 C 254.269 182.620,253.207 181.317,251.789 180.961 C 251.245 180.825,250.800 180.553,250.800 180.357 C 250.800 180.160,250.395 179.997,249.900 179.994 C 249.405 179.991,248.744 179.825,248.430 179.627 C 248.059 179.392,247.152 179.546,245.830 180.068 C 244.482 180.600,243.320 180.792,242.372 180.641 C 238.199 179.976,233.913 187.855,237.265 190.029 C 238.298 190.699,237.707 193.156,236.064 195.023 C 235.149 196.062,234.400 197.112,234.400 197.356 C 234.401 199.103,237.144 204.191,238.784 205.487 C 239.514 206.065,245.839 206.184,246.184 205.626 C 246.311 205.421,248.350 205.269,250.717 205.288 C 254.039 205.316,255.354 205.164,256.492 204.624 C 257.897 203.958,258.094 203.958,260.683 204.635 C 262.177 205.026,264.210 205.389,265.200 205.442 C 266.190 205.494,268.170 205.658,269.600 205.805 L 272.200 206.072 274.600 203.825 C 277.816 200.814,280.307 200.661,280.387 203.469 C 280.462 206.135,285.390 206.919,291.200 205.189 C 292.630 204.763,294.263 204.326,294.828 204.218 C 295.393 204.110,296.538 203.358,297.372 202.548 L 298.888 201.076 298.699 197.238 C 298.559 194.387,298.290 192.968,297.655 191.719 C 296.516 189.480,296.570 189.218,298.490 187.679 L 300.138 186.357 301.038 187.327 C 302.444 188.844,302.997 191.194,302.455 193.348 C 302.205 194.342,302.000 195.800,302.000 196.590 C 302.000 197.380,301.730 198.672,301.400 199.462 C 299.473 204.073,301.555 205.527,309.684 205.251 C 312.004 205.172,313.988 202.420,312.865 200.838 C 311.458 198.856,311.202 197.611,311.862 195.962 C 312.592 194.137,312.408 190.900,311.544 190.365 C 311.162 190.129,310.997 189.100,310.991 186.914 C 310.985 184.822,310.751 183.281,310.277 182.217 C 309.096 179.567,311.384 176.157,313.225 177.823 C 314.924 179.360,314.568 177.304,312.840 175.593 C 311.938 174.700,311.200 173.809,311.200 173.614 C 311.200 171.742,304.259 170.736,302.822 172.400 M158.800 174.505 C 158.800 174.840,158.549 175.211,158.243 175.328 C 156.939 175.828,156.224 199.625,157.430 202.358 C 158.324 204.385,159.902 205.286,162.332 205.157 C 163.383 205.101,164.447 205.182,164.697 205.337 C 165.145 205.613,166.800 204.174,166.800 203.508 C 166.800 203.321,167.187 202.644,167.660 202.004 L 168.521 200.840 170.115 202.801 C 172.294 205.479,173.667 206.070,177.076 205.796 C 180.735 205.503,181.022 205.382,181.761 203.825 C 182.656 201.939,182.421 201.419,179.209 198.186 C 178.608 197.581,178.400 196.844,178.400 195.318 C 178.400 194.189,178.122 192.178,177.781 190.849 C 177.058 188.027,177.603 186.287,179.346 185.849 C 181.524 185.303,181.457 182.787,179.195 180.200 C 178.810 179.760,178.376 178.590,178.229 177.600 C 177.569 173.135,170.400 172.740,170.400 177.168 C 170.400 178.727,167.445 181.200,165.583 181.200 C 164.091 181.200,163.087 179.843,162.977 177.676 C 162.854 175.281,162.204 174.448,160.204 174.123 C 159.113 173.946,158.800 174.031,158.800 174.505 M222.929 177.700 C 224.295 179.149,224.942 184.217,223.815 184.650 C 223.494 184.773,223.121 185.219,222.987 185.641 C 222.532 187.075,220.553 187.754,219.832 186.724 C 219.167 185.775,219.340 179.320,220.069 177.900 C 220.485 177.089,222.237 176.967,222.929 177.700 M192.959 179.431 C 192.497 179.754,191.045 180.208,189.733 180.439 L 187.347 180.860 185.626 183.649 C 184.680 185.183,183.666 186.677,183.373 186.970 C 182.281 188.061,182.605 196.041,183.931 200.754 C 184.186 201.657,187.837 204.628,190.000 205.692 C 190.550 205.962,191.109 206.336,191.243 206.523 C 191.602 207.025,195.488 206.204,198.812 204.923 C 202.213 203.613,204.265 201.423,203.799 199.602 C 203.065 196.732,203.126 196.227,204.376 194.875 C 206.767 192.288,205.501 185.897,201.934 182.547 C 198.865 179.665,194.694 178.216,192.959 179.431 M344.854 179.229 C 341.783 180.459,340.460 184.624,342.020 188.152 C 343.364 191.190,342.539 196.673,340.974 195.107 C 340.598 194.731,339.226 189.578,339.212 188.489 C 339.182 186.160,336.926 182.918,334.555 181.796 C 328.519 178.940,328.043 178.836,325.400 179.788 C 324.520 180.105,323.043 180.373,322.119 180.382 C 316.435 180.442,312.389 188.787,314.449 196.200 C 314.694 197.080,315.008 198.583,315.147 199.541 C 315.412 201.362,315.790 201.702,320.000 203.913 C 322.243 205.091,323.283 205.752,324.066 206.500 C 324.990 207.381,325.084 207.377,327.182 206.363 C 328.501 205.726,329.322 205.587,330.625 205.783 C 332.580 206.076,336.354 202.881,338.112 199.445 C 340.256 195.254,342.985 195.330,341.333 199.535 C 339.369 204.533,346.376 207.624,352.382 204.409 C 353.107 204.022,353.402 204.059,354.014 204.613 C 354.503 205.055,355.701 205.353,357.481 205.475 C 358.976 205.577,360.694 205.849,361.297 206.078 C 362.840 206.664,366.400 205.212,367.100 203.712 C 367.808 202.196,367.748 201.852,366.395 199.653 C 365.221 197.746,365.200 197.623,365.587 194.947 C 366.235 190.464,366.113 184.944,365.339 183.763 C 363.332 180.700,354.932 178.108,353.064 179.976 C 352.336 180.704,349.401 180.474,348.291 179.600 C 347.189 178.733,346.326 178.640,344.854 179.229 M167.816 186.185 C 168.790 187.463,168.851 187.767,168.599 190.085 C 168.448 191.468,168.316 194.175,168.306 196.100 C 168.287 199.445,167.827 200.538,167.000 199.200 C 166.864 198.980,166.300 198.800,165.746 198.800 C 162.855 198.800,161.297 193.998,163.552 192.041 C 164.608 191.126,164.618 190.600,163.600 189.508 C 162.491 188.318,162.597 187.465,164.031 186.031 C 165.620 184.441,166.513 184.478,167.816 186.185 M270.708 186.725 C 270.795 186.986,270.582 187.200,270.233 187.200 C 269.885 187.200,269.600 186.915,269.600 186.567 C 269.600 185.860,270.461 185.983,270.708 186.725 M328.773 187.162 C 329.608 188.335,330.032 196.409,329.352 198.182 C 329.112 198.807,327.224 200.000,326.474 200.000 C 324.808 200.000,323.424 196.499,324.584 195.218 C 325.266 194.465,325.418 192.258,324.992 189.307 C 324.508 185.948,326.930 184.573,328.773 187.162 M195.131 187.780 C 195.299 189.212,194.658 189.912,193.817 189.214 C 193.076 188.599,193.000 186.947,193.700 186.667 C 194.583 186.313,194.997 186.635,195.131 187.780 M354.982 187.048 C 357.670 188.080,357.502 198.942,354.785 199.805 C 352.454 200.545,351.272 197.915,351.999 193.608 C 352.256 192.084,352.345 190.456,352.197 189.989 C 351.566 188.002,353.139 186.341,354.982 187.048 M196.763 195.958 L 197.726 196.699 196.689 197.378 C 195.216 198.343,193.438 198.066,193.265 196.845 C 193.026 195.158,195.054 194.644,196.763 195.958 M246.567 195.843 C 247.859 196.339,247.015 198.400,245.520 198.400 C 244.680 198.400,244.519 196.841,245.280 196.080 C 245.841 195.519,245.762 195.534,246.567 195.843 M287.404 196.002 C 289.416 196.766,290.189 198.213,289.079 199.134 C 288.351 199.738,286.800 199.277,285.500 198.071 C 283.413 196.134,284.538 194.912,287.404 196.002 M267.438 196.818 C 269.995 198.056,270.272 199.600,267.937 199.600 C 267.092 199.600,266.366 199.220,265.560 198.358 C 263.425 196.072,264.342 195.320,267.438 196.818 M20.489 262.471 C 19.743 263.217,19.904 264.423,20.861 265.253 C 21.982 266.225,22.253 266.196,23.019 265.027 C 23.663 264.045,23.287 262.400,22.419 262.400 C 22.224 262.400,21.821 262.306,21.521 262.191 C 21.222 262.076,20.758 262.202,20.489 262.471 M38.590 268.830 C 38.446 269.287,38.220 269.554,38.090 269.423 C 37.960 269.293,37.625 269.730,37.346 270.393 C 37.056 271.082,36.538 271.600,36.139 271.600 C 35.062 271.600,36.088 272.431,37.240 272.491 C 37.768 272.519,38.425 272.712,38.700 272.920 C 39.088 273.213,39.200 272.703,39.200 270.649 C 39.200 267.897,39.039 267.417,38.590 268.830 M33.246 271.071 C 33.221 271.550,32.935 272.000,32.611 272.071 C 32.217 272.157,32.136 272.384,32.368 272.754 C 32.814 273.469,33.740 271.897,33.472 270.879 C 33.339 270.377,33.281 270.427,33.246 271.071 M143.200 271.371 C 143.200 273.045,144.686 274.101,145.559 273.049 C 145.920 272.615,145.839 272.451,145.179 272.279 C 144.718 272.158,144.243 271.686,144.124 271.230 C 143.825 270.088,143.200 270.184,143.200 271.371 M102.100 397.100 C 155.945 397.156,244.055 397.156,297.900 397.100 C 351.745 397.044,307.690 396.998,200.000 396.998 C 92.310 396.998,48.255 397.044,102.100 397.100 " stroke="none" fill="#fcfbfb" fill-rule="evenodd"></path><path id="path3" d="M34.406 139.501 C 31.859 140.778,32.012 136.926,32.012 200.000 C 32.012 263.074,31.859 259.222,34.406 260.499 C 36.010 261.304,150.063 261.613,152.153 260.818 C 154.603 259.886,154.443 264.141,154.440 199.996 C 154.437 135.876,154.596 140.111,152.153 139.182 C 150.063 138.387,36.010 138.696,34.406 139.501 M151.815 140.973 C 153.210 141.887,153.200 141.461,153.200 200.000 C 153.200 258.542,153.210 258.113,151.815 259.027 C 151.108 259.490,52.839 259.996,36.482 259.621 C 35.977 259.609,35.122 259.158,34.582 258.618 L 33.600 257.636 33.600 200.107 C 33.600 136.773,33.421 141.180,36.019 140.507 C 38.419 139.884,150.845 140.337,151.815 140.973 M118.560 172.933 L 117.475 173.866 118.163 176.433 C 118.874 179.084,118.902 197.292,118.201 201.472 L 117.921 203.144 119.521 203.624 C 123.036 204.677,125.923 203.440,125.400 201.104 C 125.240 200.387,124.995 193.889,124.855 186.664 L 124.600 173.528 123.656 172.764 C 122.316 171.680,119.924 171.760,118.560 172.933 M69.281 173.231 C 67.622 173.736,67.357 174.429,67.936 176.751 C 68.660 179.654,68.607 198.565,67.869 200.627 C 66.875 203.405,68.804 204.495,73.358 203.726 C 75.990 203.282,76.373 202.596,75.438 199.998 C 73.476 194.541,75.129 191.501,80.241 191.167 C 86.635 190.750,89.600 187.826,89.600 181.939 C 89.600 176.167,87.088 173.956,80.034 173.519 C 77.485 173.361,74.320 173.141,73.000 173.031 C 71.680 172.921,70.007 173.011,69.281 173.231 M122.712 174.100 C 122.968 174.412,123.172 179.684,123.256 188.131 C 123.403 203.033,123.383 203.159,121.007 202.076 L 120.101 201.663 120.035 189.141 C 119.999 182.253,119.866 176.207,119.740 175.704 C 119.318 174.020,121.625 172.775,122.712 174.100 M72.967 174.643 C 73.508 174.850,73.600 175.827,73.600 181.383 C 73.600 185.183,73.788 188.419,74.052 189.178 C 74.398 190.170,74.384 190.865,73.991 192.137 C 73.700 193.079,73.501 195.497,73.531 197.713 C 73.583 201.485,73.551 201.639,72.635 201.987 C 71.689 202.346,70.007 202.134,69.992 201.653 C 69.707 192.890,70.017 175.035,70.459 174.755 C 71.099 174.350,72.088 174.305,72.967 174.643 M79.904 175.998 C 84.434 178.760,84.102 186.151,79.316 189.067 C 76.218 190.955,75.000 189.008,75.000 182.172 C 75.000 175.594,76.384 173.852,79.904 175.998 M85.941 176.611 C 89.315 179.451,88.914 186.002,85.234 188.153 C 83.484 189.175,83.018 188.615,83.792 186.422 C 84.567 184.225,84.571 180.585,83.800 178.400 C 82.725 175.353,83.588 174.632,85.941 176.611 M100.357 182.352 C 96.039 183.466,94.083 185.245,94.598 187.591 C 95.237 190.500,98.945 190.599,99.394 187.718 C 99.963 184.064,101.552 183.091,103.603 185.141 C 106.045 187.583,104.683 191.600,101.413 191.600 C 97.973 191.600,93.597 195.460,93.315 198.743 C 92.934 203.184,96.829 205.212,102.106 203.321 C 103.755 202.730,104.240 202.708,105.706 203.156 C 110.859 204.731,113.686 203.417,111.905 200.274 C 111.591 199.719,111.335 196.888,111.205 192.529 C 111.021 186.370,110.913 185.541,110.163 184.529 C 107.974 181.576,105.498 181.026,100.357 182.352 M135.600 182.431 C 128.220 185.493,128.711 200.561,136.285 203.454 C 139.770 204.785,144.639 203.947,146.396 201.715 C 147.654 200.115,147.435 199.862,145.100 200.213 C 138.881 201.151,134.715 196.930,138.387 193.413 L 139.574 192.276 138.387 190.924 C 135.789 187.965,138.416 182.296,141.597 183.998 C 143.502 185.018,144.168 188.769,142.762 190.558 C 141.336 192.371,142.499 193.200,146.468 193.200 C 151.002 193.200,151.116 187.050,146.648 183.431 C 144.991 182.088,137.959 181.452,135.600 182.431 M107.856 184.184 C 109.223 185.141,109.541 186.675,109.770 193.400 C 109.890 196.920,110.036 200.340,110.094 201.000 C 110.229 202.531,108.325 202.916,106.785 201.668 C 105.869 200.927,105.848 200.796,106.255 198.348 C 106.567 196.468,106.553 195.260,106.200 193.738 C 105.852 192.234,105.836 191.124,106.142 189.631 C 106.442 188.165,106.434 187.107,106.112 185.903 C 105.480 183.535,106.082 182.942,107.856 184.184 M135.752 188.500 C 135.892 190.315,136.016 191.980,136.028 192.200 C 136.039 192.420,135.933 193.590,135.792 194.800 C 135.554 196.840,135.640 197.172,136.975 199.360 C 138.586 202.002,138.574 202.190,136.822 201.805 C 132.101 200.768,129.886 190.650,133.451 186.412 C 135.092 184.462,135.467 184.802,135.752 188.500 M146.994 186.232 C 149.232 188.646,148.435 192.503,145.971 191.184 C 145.323 190.838,145.200 190.328,145.200 187.986 C 145.200 184.924,145.505 184.625,146.994 186.232 M103.594 193.197 C 106.127 194.552,104.861 200.000,102.013 200.000 C 99.077 200.000,98.249 196.577,100.613 194.213 C 102.133 192.694,102.451 192.585,103.594 193.197 M97.381 197.500 C 97.528 198.105,98.094 199.281,98.639 200.114 C 99.795 201.880,99.627 202.400,97.902 202.400 C 96.153 202.400,94.800 201.031,94.800 199.262 C 94.800 196.814,96.870 195.401,97.381 197.500 " stroke="none" fill="#f4b4a4" fill-rule="evenodd"></path><path id="path4" d="M36.019 140.507 C 33.421 141.180,33.600 136.773,33.600 200.107 L 33.600 257.636 34.582 258.618 C 35.122 259.158,35.977 259.609,36.482 259.621 C 52.839 259.996,151.108 259.490,151.815 259.027 C 153.210 258.113,153.200 258.542,153.200 200.000 C 153.200 141.461,153.210 141.887,151.815 140.973 C 150.845 140.337,38.419 139.884,36.019 140.507 M151.200 142.000 C 151.980 142.780,152.000 143.330,151.995 163.900 C 151.988 189.168,152.098 188.332,149.277 184.598 C 145.189 179.186,135.789 178.935,131.826 184.130 C 128.792 188.108,128.360 195.119,130.843 200.061 C 133.971 206.289,144.982 207.038,148.795 201.282 C 150.954 198.023,149.310 196.507,145.645 198.377 C 142.331 200.067,138.400 198.940,138.400 196.298 C 138.400 194.638,139.075 194.400,143.786 194.400 C 147.438 194.400,148.471 194.261,149.695 193.605 C 151.662 192.551,151.900 193.008,151.994 198.002 C 152.033 200.091,152.090 202.610,152.120 203.600 C 152.578 218.403,151.921 257.279,151.200 258.000 C 150.303 258.897,38.567 259.300,36.237 258.414 C 34.590 257.788,34.600 258.139,34.600 200.000 C 34.600 142.632,34.611 142.212,36.112 141.608 C 38.251 140.747,150.329 141.129,151.200 142.000 M119.057 171.211 C 116.474 171.985,115.813 173.697,117.000 176.538 C 117.481 177.689,117.600 180.024,117.600 188.281 L 117.600 198.589 116.536 200.692 C 114.873 203.977,117.216 205.455,123.104 204.834 C 126.542 204.471,127.579 203.485,126.799 201.317 C 126.401 200.209,126.193 196.243,126.027 186.600 C 125.784 172.480,125.735 172.154,123.703 171.228 C 122.609 170.730,120.686 170.723,119.057 171.211 M69.333 171.964 C 65.773 172.398,64.864 173.909,66.500 176.677 C 67.371 178.151,67.400 178.533,67.400 188.600 C 67.400 198.690,67.373 199.043,66.500 200.447 C 64.422 203.788,65.635 204.800,71.715 204.800 C 78.248 204.800,79.672 203.710,77.200 200.600 C 74.439 197.126,75.707 193.064,79.685 192.637 C 86.769 191.876,90.280 188.737,90.708 182.785 C 91.207 175.835,87.464 172.654,78.000 171.984 C 72.540 171.597,72.352 171.597,69.333 171.964 M123.656 172.764 L 124.600 173.528 124.855 186.664 C 124.995 193.889,125.240 200.387,125.400 201.104 C 125.923 203.440,123.036 204.677,119.521 203.624 L 117.921 203.144 118.201 201.472 C 118.902 197.292,118.874 179.084,118.163 176.433 L 117.475 173.866 118.560 172.933 C 119.924 171.760,122.316 171.680,123.656 172.764 M80.034 173.519 C 87.088 173.956,89.600 176.167,89.600 181.939 C 89.600 187.826,86.635 190.750,80.241 191.167 C 75.129 191.501,73.476 194.541,75.438 199.998 C 76.373 202.596,75.990 203.282,73.358 203.726 C 68.804 204.495,66.875 203.405,67.869 200.627 C 68.607 198.565,68.660 179.654,67.936 176.751 C 67.149 173.594,68.434 172.649,73.000 173.031 C 74.320 173.141,77.485 173.361,80.034 173.519 M75.970 176.232 C 74.801 177.477,74.490 186.126,75.544 188.095 C 77.833 192.373,83.785 186.908,83.006 181.243 C 82.368 176.603,78.326 173.725,75.970 176.232 M80.117 177.606 C 82.570 179.536,82.647 184.486,80.257 186.675 C 77.276 189.407,76.000 188.078,76.000 182.242 C 76.000 176.952,77.351 175.431,80.117 177.606 M99.291 181.124 C 93.830 182.873,91.685 187.216,94.805 190.205 C 96.324 191.660,96.332 191.603,94.220 194.197 C 88.935 200.685,93.668 206.906,102.092 204.542 C 104.295 203.924,104.578 203.927,106.795 204.598 C 112.124 206.212,115.646 203.863,113.390 200.200 C 112.477 198.718,112.403 198.216,112.392 193.400 C 112.366 182.046,108.302 178.238,99.291 181.124 M108.004 182.500 C 110.813 184.411,110.978 184.931,111.205 192.529 C 111.335 196.888,111.591 199.719,111.905 200.274 C 113.686 203.417,110.859 204.731,105.706 203.156 C 104.240 202.708,103.755 202.730,102.106 203.321 C 96.829 205.212,92.934 203.184,93.315 198.743 C 93.597 195.460,97.973 191.600,101.413 191.600 C 104.683 191.600,106.045 187.583,103.603 185.141 C 101.552 183.091,99.963 184.064,99.394 187.718 C 98.945 190.599,95.237 190.500,94.598 187.591 C 93.725 183.617,103.944 179.737,108.004 182.500 M146.648 183.431 C 151.116 187.050,151.002 193.200,146.468 193.200 C 142.499 193.200,141.336 192.371,142.762 190.558 C 144.168 188.769,143.502 185.018,141.597 183.998 C 138.416 182.296,135.789 187.965,138.387 190.924 L 139.574 192.276 138.387 193.413 C 134.715 196.930,138.881 201.151,145.100 200.213 C 147.435 199.862,147.654 200.115,146.396 201.715 C 144.639 203.947,139.770 204.785,136.285 203.454 C 128.711 200.561,128.220 185.493,135.600 182.431 C 137.959 181.452,144.991 182.088,146.648 183.431 M141.511 185.823 C 143.779 187.411,141.656 190.915,139.344 189.400 C 138.175 188.634,138.109 187.091,139.200 186.000 C 140.163 185.037,140.367 185.021,141.511 185.823 M103.451 187.062 C 103.796 188.433,103.192 189.367,101.860 189.527 C 100.873 189.644,100.800 189.546,100.800 188.093 C 100.800 185.698,102.904 184.880,103.451 187.062 M100.613 194.213 C 98.249 196.577,99.077 200.000,102.013 200.000 C 104.861 200.000,106.127 194.552,103.594 193.197 C 102.451 192.585,102.133 192.694,100.613 194.213 M103.794 195.981 C 104.315 197.622,102.649 199.175,101.200 198.400 C 100.100 197.811,100.198 196.617,101.426 195.651 C 102.553 194.765,103.447 194.889,103.794 195.981 M96.617 218.439 L 95.206 219.677 93.332 219.039 C 90.855 218.195,89.495 218.233,87.600 219.200 C 86.738 219.640,85.521 220.000,84.896 220.000 C 84.271 220.000,83.553 220.207,83.301 220.459 C 82.955 220.805,82.577 220.731,81.770 220.159 C 78.984 218.183,78.571 217.991,77.600 218.220 C 77.050 218.351,76.150 218.872,75.600 219.379 C 74.098 220.763,73.584 220.783,71.368 219.540 C 67.207 217.206,64.780 218.218,64.477 222.412 C 64.154 226.866,65.429 227.627,69.481 225.400 C 72.339 223.829,72.897 223.747,74.938 224.600 C 77.303 225.588,79.423 225.377,81.401 223.956 C 83.063 222.763,83.245 222.723,85.867 222.985 C 88.548 223.253,88.622 223.235,89.775 222.029 C 91.198 220.540,91.362 220.529,92.897 221.820 C 93.784 222.567,94.391 222.778,95.162 222.608 C 95.803 222.468,96.526 222.611,97.008 222.976 C 98.078 223.785,99.103 223.751,99.343 222.900 C 100.280 219.572,100.270 218.451,99.296 217.700 C 98.383 216.997,98.202 217.047,96.617 218.439 M109.128 218.402 C 108.538 218.575,107.643 219.005,107.139 219.358 C 106.634 219.711,105.818 220.000,105.325 220.000 C 104.161 220.000,103.421 221.318,103.988 222.378 C 104.652 223.618,108.443 223.292,109.930 221.867 C 111.333 220.523,111.594 220.533,112.981 221.981 C 113.603 222.630,114.672 223.279,115.356 223.424 C 116.683 223.704,118.400 225.041,118.400 225.794 C 118.400 229.235,123.066 228.536,125.818 224.683 L 126.615 223.565 128.298 224.483 C 130.775 225.833,132.359 224.639,131.830 221.821 C 131.430 219.687,129.889 218.226,128.480 218.643 C 127.296 218.994,125.593 218.976,122.741 218.582 C 121.315 218.386,120.442 218.521,118.990 219.163 C 116.655 220.196,115.647 220.212,113.712 219.243 C 111.737 218.253,110.445 218.017,109.128 218.402 " stroke="none" fill="#f4b494" fill-rule="evenodd"></path></g></svg>